<mxfile host="app.diagrams.net" agent="Mozilla/5.0 (X11; Linux x86_64; rv:134.0) Gecko/20100101 Firefox/134.0" version="26.1.1">
  <diagram name="Page-1" id="uLaUGeJoAZtm88kYBlEV">
    <mxGraphModel dx="4590" dy="2468" grid="1" gridSize="10" guides="1" tooltips="1" connect="1" arrows="1" fold="1" page="1" pageScale="1" pageWidth="850" pageHeight="1100" math="0" shadow="0">
      <root>
        <mxCell id="0" />
        <mxCell id="1" parent="0" />
        <mxCell id="hGhjzTnvbfTXE9VeTpnB-146" value="" style="rounded=0;whiteSpace=wrap;html=1;fillColor=#dae8fc;strokeColor=#6c8ebf;" parent="1" vertex="1">
          <mxGeometry x="2160" y="-150" width="880" height="360" as="geometry" />
        </mxCell>
        <mxCell id="hGhjzTnvbfTXE9VeTpnB-145" value="Current" style="rounded=0;whiteSpace=wrap;html=1;fillColor=#dae8fc;strokeColor=#6c8ebf;" parent="1" vertex="1">
          <mxGeometry x="2070" y="1890" width="880" height="360" as="geometry" />
        </mxCell>
        <mxCell id="hGhjzTnvbfTXE9VeTpnB-144" value="" style="rounded=0;whiteSpace=wrap;html=1;fillColor=#dae8fc;strokeColor=#6c8ebf;" parent="1" vertex="1">
          <mxGeometry x="360" y="400" width="880" height="360" as="geometry" />
        </mxCell>
        <mxCell id="FYjfPOaOogyN8UIdp8HT-1" value="1" style="whiteSpace=wrap;html=1;aspect=fixed;fontSize=15;" parent="1" vertex="1">
          <mxGeometry x="360" y="400" width="80" height="80" as="geometry" />
        </mxCell>
        <mxCell id="FYjfPOaOogyN8UIdp8HT-2" value="5" style="whiteSpace=wrap;html=1;aspect=fixed;fontSize=15;" parent="1" vertex="1">
          <mxGeometry x="680" y="400" width="80" height="80" as="geometry" />
        </mxCell>
        <mxCell id="FYjfPOaOogyN8UIdp8HT-3" value="4" style="whiteSpace=wrap;html=1;aspect=fixed;fontSize=15;" parent="1" vertex="1">
          <mxGeometry x="600" y="400" width="80" height="80" as="geometry" />
        </mxCell>
        <mxCell id="FYjfPOaOogyN8UIdp8HT-4" value="3" style="whiteSpace=wrap;html=1;aspect=fixed;fontSize=15;" parent="1" vertex="1">
          <mxGeometry x="520" y="400" width="80" height="80" as="geometry" />
        </mxCell>
        <mxCell id="FYjfPOaOogyN8UIdp8HT-5" value="2" style="whiteSpace=wrap;html=1;aspect=fixed;fontSize=15;" parent="1" vertex="1">
          <mxGeometry x="440" y="400" width="80" height="80" as="geometry" />
        </mxCell>
        <mxCell id="FYjfPOaOogyN8UIdp8HT-6" value="@" style="whiteSpace=wrap;html=1;aspect=fixed;fontSize=15;" parent="1" vertex="1">
          <mxGeometry x="360" y="480" width="80" height="80" as="geometry" />
        </mxCell>
        <mxCell id="FYjfPOaOogyN8UIdp8HT-7" value="&amp;amp;" style="whiteSpace=wrap;html=1;aspect=fixed;fontSize=15;" parent="1" vertex="1">
          <mxGeometry x="680" y="480" width="80" height="80" as="geometry" />
        </mxCell>
        <mxCell id="FYjfPOaOogyN8UIdp8HT-8" value="%" style="whiteSpace=wrap;html=1;aspect=fixed;fontSize=15;" parent="1" vertex="1">
          <mxGeometry x="600" y="480" width="80" height="80" as="geometry" />
        </mxCell>
        <mxCell id="FYjfPOaOogyN8UIdp8HT-9" value="â‚¬" style="whiteSpace=wrap;html=1;aspect=fixed;fontSize=15;" parent="1" vertex="1">
          <mxGeometry x="520" y="480" width="80" height="80" as="geometry" />
        </mxCell>
        <mxCell id="FYjfPOaOogyN8UIdp8HT-10" value="#" style="whiteSpace=wrap;html=1;aspect=fixed;fontSize=15;" parent="1" vertex="1">
          <mxGeometry x="440" y="480" width="80" height="80" as="geometry" />
        </mxCell>
        <mxCell id="FYjfPOaOogyN8UIdp8HT-11" value="*" style="whiteSpace=wrap;html=1;aspect=fixed;fontSize=15;" parent="1" vertex="1">
          <mxGeometry x="360" y="560" width="80" height="80" as="geometry" />
        </mxCell>
        <mxCell id="FYjfPOaOogyN8UIdp8HT-12" value="" style="whiteSpace=wrap;html=1;aspect=fixed;fontSize=15;" parent="1" vertex="1">
          <mxGeometry x="680" y="560" width="80" height="80" as="geometry" />
        </mxCell>
        <mxCell id="FYjfPOaOogyN8UIdp8HT-13" value=":" style="whiteSpace=wrap;html=1;aspect=fixed;fontSize=15;" parent="1" vertex="1">
          <mxGeometry x="600" y="560" width="80" height="80" as="geometry" />
        </mxCell>
        <mxCell id="FYjfPOaOogyN8UIdp8HT-14" value="&#39;" style="whiteSpace=wrap;html=1;aspect=fixed;fontSize=15;" parent="1" vertex="1">
          <mxGeometry x="520" y="560" width="80" height="80" as="geometry" />
        </mxCell>
        <mxCell id="FYjfPOaOogyN8UIdp8HT-15" value="&quot;" style="whiteSpace=wrap;html=1;aspect=fixed;fontSize=15;" parent="1" vertex="1">
          <mxGeometry x="440" y="560" width="80" height="80" as="geometry" />
        </mxCell>
        <mxCell id="FYjfPOaOogyN8UIdp8HT-17" value="," style="whiteSpace=wrap;html=1;aspect=fixed;fontSize=15;" parent="1" vertex="1">
          <mxGeometry x="680" y="680" width="80" height="80" as="geometry" />
        </mxCell>
        <mxCell id="FYjfPOaOogyN8UIdp8HT-18" value="Space" style="whiteSpace=wrap;html=1;aspect=fixed;fontSize=15;" parent="1" vertex="1">
          <mxGeometry x="600" y="680" width="80" height="80" as="geometry" />
        </mxCell>
        <mxCell id="SdGfZLegvcMAtEPTVsvc-39" style="edgeStyle=orthogonalEdgeStyle;rounded=0;orthogonalLoop=1;jettySize=auto;html=1;" parent="1" source="FYjfPOaOogyN8UIdp8HT-19" target="SdGfZLegvcMAtEPTVsvc-2" edge="1">
          <mxGeometry relative="1" as="geometry" />
        </mxCell>
        <mxCell id="FYjfPOaOogyN8UIdp8HT-19" value="More Sym - Press" style="whiteSpace=wrap;html=1;aspect=fixed;fontSize=15;" parent="1" vertex="1">
          <mxGeometry x="520" y="680" width="80" height="80" as="geometry" />
        </mxCell>
        <mxCell id="FYjfPOaOogyN8UIdp8HT-39" value="6" style="whiteSpace=wrap;html=1;aspect=fixed;fontSize=15;" parent="1" vertex="1">
          <mxGeometry x="840" y="400" width="80" height="80" as="geometry" />
        </mxCell>
        <mxCell id="FYjfPOaOogyN8UIdp8HT-41" value="9" style="whiteSpace=wrap;html=1;aspect=fixed;fontSize=15;" parent="1" vertex="1">
          <mxGeometry x="1080" y="400" width="80" height="80" as="geometry" />
        </mxCell>
        <mxCell id="FYjfPOaOogyN8UIdp8HT-42" value="8" style="whiteSpace=wrap;html=1;aspect=fixed;fontSize=15;" parent="1" vertex="1">
          <mxGeometry x="1000" y="400" width="80" height="80" as="geometry" />
        </mxCell>
        <mxCell id="FYjfPOaOogyN8UIdp8HT-43" value="7" style="whiteSpace=wrap;html=1;aspect=fixed;fontSize=15;" parent="1" vertex="1">
          <mxGeometry x="920" y="400" width="80" height="80" as="geometry" />
        </mxCell>
        <mxCell id="FYjfPOaOogyN8UIdp8HT-44" value="-" style="whiteSpace=wrap;html=1;aspect=fixed;fontSize=15;" parent="1" vertex="1">
          <mxGeometry x="840" y="480" width="80" height="80" as="geometry" />
        </mxCell>
        <mxCell id="FYjfPOaOogyN8UIdp8HT-45" value="/" style="whiteSpace=wrap;html=1;aspect=fixed;fontSize=15;" parent="1" vertex="1">
          <mxGeometry x="1160" y="480" width="80" height="80" as="geometry" />
        </mxCell>
        <mxCell id="FYjfPOaOogyN8UIdp8HT-46" value=")" style="whiteSpace=wrap;html=1;aspect=fixed;fontSize=15;" parent="1" vertex="1">
          <mxGeometry x="1080" y="480" width="80" height="80" as="geometry" />
        </mxCell>
        <mxCell id="FYjfPOaOogyN8UIdp8HT-47" value="(" style="whiteSpace=wrap;html=1;aspect=fixed;fontSize=15;" parent="1" vertex="1">
          <mxGeometry x="1000" y="480" width="80" height="80" as="geometry" />
        </mxCell>
        <mxCell id="FYjfPOaOogyN8UIdp8HT-48" value="+" style="whiteSpace=wrap;html=1;aspect=fixed;fontSize=15;" parent="1" vertex="1">
          <mxGeometry x="920" y="480" width="80" height="80" as="geometry" />
        </mxCell>
        <mxCell id="FYjfPOaOogyN8UIdp8HT-49" value="" style="whiteSpace=wrap;html=1;aspect=fixed;fontSize=15;" parent="1" vertex="1">
          <mxGeometry x="840" y="560" width="80" height="80" as="geometry" />
        </mxCell>
        <mxCell id="FYjfPOaOogyN8UIdp8HT-50" value="Backspace" style="whiteSpace=wrap;html=1;aspect=fixed;fontSize=15;" parent="1" vertex="1">
          <mxGeometry x="1160" y="560" width="80" height="80" as="geometry" />
        </mxCell>
        <mxCell id="FYjfPOaOogyN8UIdp8HT-51" value="?" style="whiteSpace=wrap;html=1;aspect=fixed;fontSize=15;" parent="1" vertex="1">
          <mxGeometry x="1080" y="560" width="80" height="80" as="geometry" />
        </mxCell>
        <mxCell id="FYjfPOaOogyN8UIdp8HT-52" value="!" style="whiteSpace=wrap;html=1;aspect=fixed;fontSize=15;" parent="1" vertex="1">
          <mxGeometry x="1000" y="560" width="80" height="80" as="geometry" />
        </mxCell>
        <mxCell id="FYjfPOaOogyN8UIdp8HT-53" value=";" style="whiteSpace=wrap;html=1;aspect=fixed;fontSize=15;" parent="1" vertex="1">
          <mxGeometry x="920" y="560" width="80" height="80" as="geometry" />
        </mxCell>
        <mxCell id="SdGfZLegvcMAtEPTVsvc-40" style="edgeStyle=orthogonalEdgeStyle;rounded=0;orthogonalLoop=1;jettySize=auto;html=1;" parent="1" source="FYjfPOaOogyN8UIdp8HT-54" target="SdGfZLegvcMAtEPTVsvc-2" edge="1">
          <mxGeometry relative="1" as="geometry" />
        </mxCell>
        <mxCell id="FYjfPOaOogyN8UIdp8HT-54" value="More Sym - Press" style="whiteSpace=wrap;html=1;aspect=fixed;fontSize=15;" parent="1" vertex="1">
          <mxGeometry x="1000" y="680" width="80" height="80" as="geometry" />
        </mxCell>
        <mxCell id="FYjfPOaOogyN8UIdp8HT-55" value="Space" style="whiteSpace=wrap;html=1;aspect=fixed;fontSize=15;" parent="1" vertex="1">
          <mxGeometry x="920" y="680" width="80" height="80" as="geometry" />
        </mxCell>
        <mxCell id="FYjfPOaOogyN8UIdp8HT-56" value="." style="whiteSpace=wrap;html=1;aspect=fixed;fontSize=15;" parent="1" vertex="1">
          <mxGeometry x="840" y="680" width="80" height="80" as="geometry" />
        </mxCell>
        <mxCell id="FYjfPOaOogyN8UIdp8HT-93" value="w" style="whiteSpace=wrap;html=1;aspect=fixed;fontSize=16;" parent="1" vertex="1">
          <mxGeometry x="2070" y="1890" width="80" height="80" as="geometry" />
        </mxCell>
        <mxCell id="FYjfPOaOogyN8UIdp8HT-94" value="z" style="whiteSpace=wrap;html=1;aspect=fixed;fontSize=16;" parent="1" vertex="1">
          <mxGeometry x="2390" y="1890" width="80" height="80" as="geometry" />
        </mxCell>
        <mxCell id="FYjfPOaOogyN8UIdp8HT-95" value="b" style="whiteSpace=wrap;html=1;aspect=fixed;fontSize=16;" parent="1" vertex="1">
          <mxGeometry x="2310" y="1890" width="80" height="80" as="geometry" />
        </mxCell>
        <mxCell id="FYjfPOaOogyN8UIdp8HT-96" value="r" style="whiteSpace=wrap;html=1;aspect=fixed;fontSize=16;" parent="1" vertex="1">
          <mxGeometry x="2230" y="1890" width="80" height="80" as="geometry" />
        </mxCell>
        <mxCell id="FYjfPOaOogyN8UIdp8HT-97" value="l" style="whiteSpace=wrap;html=1;aspect=fixed;fontSize=16;" parent="1" vertex="1">
          <mxGeometry x="2150" y="1890" width="80" height="80" as="geometry" />
        </mxCell>
        <mxCell id="FYjfPOaOogyN8UIdp8HT-98" value="s" style="whiteSpace=wrap;html=1;aspect=fixed;fontSize=16;" parent="1" vertex="1">
          <mxGeometry x="2070" y="1970" width="80" height="80" as="geometry" />
        </mxCell>
        <mxCell id="FYjfPOaOogyN8UIdp8HT-99" value="," style="whiteSpace=wrap;html=1;aspect=fixed;fontSize=16;" parent="1" vertex="1">
          <mxGeometry x="2390" y="1970" width="80" height="80" as="geometry" />
        </mxCell>
        <mxCell id="FYjfPOaOogyN8UIdp8HT-100" value="t" style="whiteSpace=wrap;html=1;aspect=fixed;fontSize=16;" parent="1" vertex="1">
          <mxGeometry x="2310" y="1970" width="80" height="80" as="geometry" />
        </mxCell>
        <mxCell id="FYjfPOaOogyN8UIdp8HT-101" value="n" style="whiteSpace=wrap;html=1;aspect=fixed;fontSize=16;" parent="1" vertex="1">
          <mxGeometry x="2230" y="1970" width="80" height="80" as="geometry" />
        </mxCell>
        <mxCell id="FYjfPOaOogyN8UIdp8HT-102" value="h" style="whiteSpace=wrap;html=1;aspect=fixed;fontSize=16;" parent="1" vertex="1">
          <mxGeometry x="2150" y="1970" width="80" height="80" as="geometry" />
        </mxCell>
        <mxCell id="FYjfPOaOogyN8UIdp8HT-103" value="f" style="whiteSpace=wrap;html=1;aspect=fixed;fontSize=16;" parent="1" vertex="1">
          <mxGeometry x="2070" y="2050" width="80" height="80" as="geometry" />
        </mxCell>
        <mxCell id="FYjfPOaOogyN8UIdp8HT-104" value="/" style="whiteSpace=wrap;html=1;aspect=fixed;fontSize=16;" parent="1" vertex="1">
          <mxGeometry x="2390" y="2050" width="80" height="80" as="geometry" />
        </mxCell>
        <mxCell id="FYjfPOaOogyN8UIdp8HT-105" value="c" style="whiteSpace=wrap;html=1;aspect=fixed;fontSize=16;" parent="1" vertex="1">
          <mxGeometry x="2310" y="2050" width="80" height="80" as="geometry" />
        </mxCell>
        <mxCell id="FYjfPOaOogyN8UIdp8HT-106" value="v" style="whiteSpace=wrap;html=1;aspect=fixed;fontSize=16;" parent="1" vertex="1">
          <mxGeometry x="2230" y="2050" width="80" height="80" as="geometry" />
        </mxCell>
        <mxCell id="FYjfPOaOogyN8UIdp8HT-107" value="m" style="whiteSpace=wrap;html=1;aspect=fixed;fontSize=16;" parent="1" vertex="1">
          <mxGeometry x="2150" y="2050" width="80" height="80" as="geometry" />
        </mxCell>
        <mxCell id="FYjfPOaOogyN8UIdp8HT-108" value="&lt;div style=&quot;font-size: 16px;&quot;&gt;Enter&lt;/div&gt;" style="whiteSpace=wrap;html=1;aspect=fixed;fontSize=16;" parent="1" vertex="1">
          <mxGeometry x="2390" y="2170" width="80" height="80" as="geometry" />
        </mxCell>
        <mxCell id="FYjfPOaOogyN8UIdp8HT-109" value="Shift" style="whiteSpace=wrap;html=1;aspect=fixed;fontSize=16;" parent="1" vertex="1">
          <mxGeometry x="2310" y="2170" width="80" height="80" as="geometry" />
        </mxCell>
        <mxCell id="FYjfPOaOogyN8UIdp8HT-110" value="Super" style="whiteSpace=wrap;html=1;aspect=fixed;fontSize=16;" parent="1" vertex="1">
          <mxGeometry x="2230" y="2170" width="80" height="80" as="geometry" />
        </mxCell>
        <mxCell id="FYjfPOaOogyN8UIdp8HT-111" value=":" style="whiteSpace=wrap;html=1;aspect=fixed;fontSize=16;" parent="1" vertex="1">
          <mxGeometry x="2550" y="1890" width="80" height="80" as="geometry" />
        </mxCell>
        <mxCell id="FYjfPOaOogyN8UIdp8HT-113" value="d" style="whiteSpace=wrap;html=1;aspect=fixed;fontSize=16;" parent="1" vertex="1">
          <mxGeometry x="2790" y="1890" width="80" height="80" as="geometry" />
        </mxCell>
        <mxCell id="FYjfPOaOogyN8UIdp8HT-114" value="u" style="whiteSpace=wrap;html=1;aspect=fixed;fontSize=16;" parent="1" vertex="1">
          <mxGeometry x="2710" y="1890" width="80" height="80" as="geometry" />
        </mxCell>
        <mxCell id="FYjfPOaOogyN8UIdp8HT-115" value="q" style="whiteSpace=wrap;html=1;aspect=fixed;fontSize=16;" parent="1" vertex="1">
          <mxGeometry x="2630" y="1890" width="80" height="80" as="geometry" />
        </mxCell>
        <mxCell id="FYjfPOaOogyN8UIdp8HT-116" value="." style="whiteSpace=wrap;html=1;aspect=fixed;fontSize=16;" parent="1" vertex="1">
          <mxGeometry x="2550" y="1970" width="80" height="80" as="geometry" />
        </mxCell>
        <mxCell id="FYjfPOaOogyN8UIdp8HT-117" value="i" style="whiteSpace=wrap;html=1;aspect=fixed;fontSize=16;" parent="1" vertex="1">
          <mxGeometry x="2870" y="1970" width="80" height="80" as="geometry" />
        </mxCell>
        <mxCell id="FYjfPOaOogyN8UIdp8HT-118" value="o" style="whiteSpace=wrap;html=1;aspect=fixed;fontSize=16;" parent="1" vertex="1">
          <mxGeometry x="2790" y="1970" width="80" height="80" as="geometry" />
        </mxCell>
        <mxCell id="FYjfPOaOogyN8UIdp8HT-119" value="e" style="whiteSpace=wrap;html=1;aspect=fixed;fontSize=16;" parent="1" vertex="1">
          <mxGeometry x="2710" y="1970" width="80" height="80" as="geometry" />
        </mxCell>
        <mxCell id="FYjfPOaOogyN8UIdp8HT-120" value="a" style="whiteSpace=wrap;html=1;aspect=fixed;fontSize=16;" parent="1" vertex="1">
          <mxGeometry x="2630" y="1970" width="80" height="80" as="geometry" />
        </mxCell>
        <mxCell id="FYjfPOaOogyN8UIdp8HT-121" value="g" style="whiteSpace=wrap;html=1;aspect=fixed;fontSize=16;" parent="1" vertex="1">
          <mxGeometry x="2550" y="2050" width="80" height="80" as="geometry" />
        </mxCell>
        <mxCell id="FYjfPOaOogyN8UIdp8HT-122" value="y" style="whiteSpace=wrap;html=1;aspect=fixed;fontSize=16;" parent="1" vertex="1">
          <mxGeometry x="2870" y="2050" width="80" height="80" as="geometry" />
        </mxCell>
        <mxCell id="FYjfPOaOogyN8UIdp8HT-123" value="k" style="whiteSpace=wrap;html=1;aspect=fixed;fontSize=16;" parent="1" vertex="1">
          <mxGeometry x="2790" y="2050" width="80" height="80" as="geometry" />
        </mxCell>
        <mxCell id="FYjfPOaOogyN8UIdp8HT-124" value="x" style="whiteSpace=wrap;html=1;aspect=fixed;fontSize=16;" parent="1" vertex="1">
          <mxGeometry x="2710" y="2050" width="80" height="80" as="geometry" />
        </mxCell>
        <mxCell id="FYjfPOaOogyN8UIdp8HT-125" value="p" style="whiteSpace=wrap;html=1;aspect=fixed;fontSize=16;" parent="1" vertex="1">
          <mxGeometry x="2630" y="2050" width="80" height="80" as="geometry" />
        </mxCell>
        <mxCell id="FYjfPOaOogyN8UIdp8HT-126" value="Escape" style="whiteSpace=wrap;html=1;aspect=fixed;fontSize=16;" parent="1" vertex="1">
          <mxGeometry x="2710" y="2170" width="80" height="80" as="geometry" />
        </mxCell>
        <mxCell id="FYjfPOaOogyN8UIdp8HT-127" value="Space" style="whiteSpace=wrap;html=1;aspect=fixed;fontSize=16;" parent="1" vertex="1">
          <mxGeometry x="2630" y="2170" width="80" height="80" as="geometry" />
        </mxCell>
        <mxCell id="FYjfPOaOogyN8UIdp8HT-128" value="Backspace" style="whiteSpace=wrap;html=1;aspect=fixed;fontSize=16;" parent="1" vertex="1">
          <mxGeometry x="2550" y="2170" width="80" height="80" as="geometry" />
        </mxCell>
        <mxCell id="FYjfPOaOogyN8UIdp8HT-129" value="j" style="whiteSpace=wrap;html=1;aspect=fixed;fillColor=#f8cecc;strokeColor=#b85450;fontSize=16;" parent="1" vertex="1">
          <mxGeometry x="2870" y="1890" width="80" height="80" as="geometry" />
        </mxCell>
        <mxCell id="hGhjzTnvbfTXE9VeTpnB-1" value="Tab" style="whiteSpace=wrap;html=1;aspect=fixed;fontSize=15;" parent="1" vertex="1">
          <mxGeometry x="2160" y="-150" width="80" height="80" as="geometry" />
        </mxCell>
        <mxCell id="hGhjzTnvbfTXE9VeTpnB-2" value="r" style="whiteSpace=wrap;html=1;aspect=fixed;fontSize=15;" parent="1" vertex="1">
          <mxGeometry x="2480" y="-150" width="80" height="80" as="geometry" />
        </mxCell>
        <mxCell id="hGhjzTnvbfTXE9VeTpnB-3" value="e" style="whiteSpace=wrap;html=1;aspect=fixed;fontSize=15;" parent="1" vertex="1">
          <mxGeometry x="2400" y="-150" width="80" height="80" as="geometry" />
        </mxCell>
        <mxCell id="hGhjzTnvbfTXE9VeTpnB-4" value="w" style="whiteSpace=wrap;html=1;aspect=fixed;fontSize=15;" parent="1" vertex="1">
          <mxGeometry x="2320" y="-150" width="80" height="80" as="geometry" />
        </mxCell>
        <mxCell id="hGhjzTnvbfTXE9VeTpnB-5" value="q" style="whiteSpace=wrap;html=1;aspect=fixed;fontSize=15;" parent="1" vertex="1">
          <mxGeometry x="2240" y="-150" width="80" height="80" as="geometry" />
        </mxCell>
        <mxCell id="hGhjzTnvbfTXE9VeTpnB-6" value="Shift" style="whiteSpace=wrap;html=1;aspect=fixed;fontSize=15;" parent="1" vertex="1">
          <mxGeometry x="2160" y="-70" width="80" height="80" as="geometry" />
        </mxCell>
        <mxCell id="hGhjzTnvbfTXE9VeTpnB-7" value="f" style="whiteSpace=wrap;html=1;aspect=fixed;fontSize=15;" parent="1" vertex="1">
          <mxGeometry x="2480" y="-70" width="80" height="80" as="geometry" />
        </mxCell>
        <mxCell id="hGhjzTnvbfTXE9VeTpnB-8" value="d" style="whiteSpace=wrap;html=1;aspect=fixed;fontSize=15;" parent="1" vertex="1">
          <mxGeometry x="2400" y="-70" width="80" height="80" as="geometry" />
        </mxCell>
        <mxCell id="hGhjzTnvbfTXE9VeTpnB-9" value="s" style="whiteSpace=wrap;html=1;aspect=fixed;fontSize=15;" parent="1" vertex="1">
          <mxGeometry x="2320" y="-70" width="80" height="80" as="geometry" />
        </mxCell>
        <mxCell id="hGhjzTnvbfTXE9VeTpnB-10" value="a" style="whiteSpace=wrap;html=1;aspect=fixed;fontSize=15;" parent="1" vertex="1">
          <mxGeometry x="2240" y="-70" width="80" height="80" as="geometry" />
        </mxCell>
        <mxCell id="hGhjzTnvbfTXE9VeTpnB-11" value="Control" style="whiteSpace=wrap;html=1;aspect=fixed;fontSize=15;" parent="1" vertex="1">
          <mxGeometry x="2160" y="10" width="80" height="80" as="geometry" />
        </mxCell>
        <mxCell id="hGhjzTnvbfTXE9VeTpnB-12" value="v" style="whiteSpace=wrap;html=1;aspect=fixed;fontSize=15;" parent="1" vertex="1">
          <mxGeometry x="2480" y="10" width="80" height="80" as="geometry" />
        </mxCell>
        <mxCell id="hGhjzTnvbfTXE9VeTpnB-13" value="c" style="whiteSpace=wrap;html=1;aspect=fixed;fontSize=15;" parent="1" vertex="1">
          <mxGeometry x="2400" y="10" width="80" height="80" as="geometry" />
        </mxCell>
        <mxCell id="hGhjzTnvbfTXE9VeTpnB-14" value="x" style="whiteSpace=wrap;html=1;aspect=fixed;fontSize=15;" parent="1" vertex="1">
          <mxGeometry x="2320" y="10" width="80" height="80" as="geometry" />
        </mxCell>
        <mxCell id="hGhjzTnvbfTXE9VeTpnB-15" value="z" style="whiteSpace=wrap;html=1;aspect=fixed;fontSize=15;" parent="1" vertex="1">
          <mxGeometry x="2240" y="10" width="80" height="80" as="geometry" />
        </mxCell>
        <mxCell id="hGhjzTnvbfTXE9VeTpnB-16" value="G" style="whiteSpace=wrap;html=1;aspect=fixed;fontSize=15;" parent="1" vertex="1">
          <mxGeometry x="2480" y="130" width="80" height="80" as="geometry" />
        </mxCell>
        <mxCell id="hGhjzTnvbfTXE9VeTpnB-17" value="Space" style="whiteSpace=wrap;html=1;aspect=fixed;fontSize=15;" parent="1" vertex="1">
          <mxGeometry x="2400" y="130" width="80" height="80" as="geometry" />
        </mxCell>
        <mxCell id="hGhjzTnvbfTXE9VeTpnB-18" value="Alt" style="whiteSpace=wrap;html=1;aspect=fixed;fontSize=15;" parent="1" vertex="1">
          <mxGeometry x="2320" y="130" width="80" height="80" as="geometry" />
        </mxCell>
        <mxCell id="hGhjzTnvbfTXE9VeTpnB-19" value="Escape" style="whiteSpace=wrap;html=1;aspect=fixed;fontSize=15;" parent="1" vertex="1">
          <mxGeometry x="2640" y="-150" width="80" height="80" as="geometry" />
        </mxCell>
        <mxCell id="hGhjzTnvbfTXE9VeTpnB-23" value="Enter" style="whiteSpace=wrap;html=1;aspect=fixed;fontSize=15;" parent="1" vertex="1">
          <mxGeometry x="2640" y="-70" width="80" height="80" as="geometry" />
        </mxCell>
        <mxCell id="hGhjzTnvbfTXE9VeTpnB-24" value="" style="whiteSpace=wrap;html=1;aspect=fixed;fontSize=15;" parent="1" vertex="1">
          <mxGeometry x="2800" y="-70" width="80" height="80" as="geometry" />
        </mxCell>
        <mxCell id="zB9Hcg4-IZfHeqOssu0k-1" style="edgeStyle=orthogonalEdgeStyle;rounded=0;orthogonalLoop=1;jettySize=auto;html=1;exitX=0.5;exitY=0;exitDx=0;exitDy=0;entryX=0.5;entryY=1;entryDx=0;entryDy=0;" edge="1" parent="1" source="hGhjzTnvbfTXE9VeTpnB-25" target="hGhjzTnvbfTXE9VeTpnB-151">
          <mxGeometry relative="1" as="geometry">
            <Array as="points">
              <mxPoint x="3010" y="-70" />
              <mxPoint x="3010" y="-170" />
              <mxPoint x="2600" y="-170" />
            </Array>
          </mxGeometry>
        </mxCell>
        <mxCell id="hGhjzTnvbfTXE9VeTpnB-25" value="Tap Toggle: Gaming Arrows" style="whiteSpace=wrap;html=1;aspect=fixed;fontSize=15;" parent="1" vertex="1">
          <mxGeometry x="2960" y="-70" width="80" height="80" as="geometry" />
        </mxCell>
        <mxCell id="zB9Hcg4-IZfHeqOssu0k-4" style="edgeStyle=orthogonalEdgeStyle;rounded=0;orthogonalLoop=1;jettySize=auto;html=1;exitX=0.5;exitY=1;exitDx=0;exitDy=0;entryX=0.5;entryY=0;entryDx=0;entryDy=0;" edge="1" parent="1" source="hGhjzTnvbfTXE9VeTpnB-26" target="hGhjzTnvbfTXE9VeTpnB-145">
          <mxGeometry relative="1" as="geometry">
            <mxPoint x="2470" y="1149.9999999999995" as="targetPoint" />
            <Array as="points">
              <mxPoint x="3000" y="110" />
              <mxPoint x="3130" y="110" />
              <mxPoint x="3130" y="1810" />
              <mxPoint x="2510" y="1810" />
            </Array>
          </mxGeometry>
        </mxCell>
        <mxCell id="hGhjzTnvbfTXE9VeTpnB-27" value="" style="whiteSpace=wrap;html=1;aspect=fixed;fontSize=15;" parent="1" vertex="1">
          <mxGeometry x="2720" y="-70" width="80" height="80" as="geometry" />
        </mxCell>
        <mxCell id="hGhjzTnvbfTXE9VeTpnB-28" value="" style="whiteSpace=wrap;html=1;aspect=fixed;fontSize=15;" parent="1" vertex="1">
          <mxGeometry x="2640" y="10" width="80" height="80" as="geometry" />
        </mxCell>
        <mxCell id="hGhjzTnvbfTXE9VeTpnB-29" value="" style="whiteSpace=wrap;html=1;aspect=fixed;fontSize=15;" parent="1" vertex="1">
          <mxGeometry x="2880" y="-70" width="80" height="80" as="geometry" />
        </mxCell>
        <mxCell id="hGhjzTnvbfTXE9VeTpnB-33" value="" style="whiteSpace=wrap;html=1;aspect=fixed;fontSize=15;" parent="1" vertex="1">
          <mxGeometry x="2800" y="130" width="80" height="80" as="geometry" />
        </mxCell>
        <mxCell id="hGhjzTnvbfTXE9VeTpnB-34" value="" style="whiteSpace=wrap;html=1;aspect=fixed;fontSize=15;" parent="1" vertex="1">
          <mxGeometry x="2720" y="130" width="80" height="80" as="geometry" />
        </mxCell>
        <mxCell id="hGhjzTnvbfTXE9VeTpnB-35" value="" style="whiteSpace=wrap;html=1;aspect=fixed;fontSize=15;" parent="1" vertex="1">
          <mxGeometry x="2640" y="130" width="80" height="80" as="geometry" />
        </mxCell>
        <mxCell id="hGhjzTnvbfTXE9VeTpnB-151" value="" style="rounded=0;whiteSpace=wrap;html=1;fillColor=#dae8fc;strokeColor=#6c8ebf;" parent="1" vertex="1">
          <mxGeometry x="2160" y="-580" width="880" height="360" as="geometry" />
        </mxCell>
        <mxCell id="hGhjzTnvbfTXE9VeTpnB-152" value="Tab" style="whiteSpace=wrap;html=1;aspect=fixed;fontSize=15;" parent="1" vertex="1">
          <mxGeometry x="2160" y="-580" width="80" height="80" as="geometry" />
        </mxCell>
        <mxCell id="hGhjzTnvbfTXE9VeTpnB-153" value="r" style="whiteSpace=wrap;html=1;aspect=fixed;fontSize=15;" parent="1" vertex="1">
          <mxGeometry x="2480" y="-580" width="80" height="80" as="geometry" />
        </mxCell>
        <mxCell id="hGhjzTnvbfTXE9VeTpnB-154" value="e" style="whiteSpace=wrap;html=1;aspect=fixed;fontSize=15;" parent="1" vertex="1">
          <mxGeometry x="2400" y="-580" width="80" height="80" as="geometry" />
        </mxCell>
        <mxCell id="hGhjzTnvbfTXE9VeTpnB-155" value="Up&lt;br&gt;Arrow" style="whiteSpace=wrap;html=1;aspect=fixed;fontSize=15;" parent="1" vertex="1">
          <mxGeometry x="2320" y="-580" width="80" height="80" as="geometry" />
        </mxCell>
        <mxCell id="hGhjzTnvbfTXE9VeTpnB-156" value="q" style="whiteSpace=wrap;html=1;aspect=fixed;fontSize=15;" parent="1" vertex="1">
          <mxGeometry x="2240" y="-580" width="80" height="80" as="geometry" />
        </mxCell>
        <mxCell id="hGhjzTnvbfTXE9VeTpnB-157" value="Shift" style="whiteSpace=wrap;html=1;aspect=fixed;fontSize=15;" parent="1" vertex="1">
          <mxGeometry x="2160" y="-500" width="80" height="80" as="geometry" />
        </mxCell>
        <mxCell id="hGhjzTnvbfTXE9VeTpnB-158" value="f" style="whiteSpace=wrap;html=1;aspect=fixed;fontSize=15;" parent="1" vertex="1">
          <mxGeometry x="2480" y="-500" width="80" height="80" as="geometry" />
        </mxCell>
        <mxCell id="hGhjzTnvbfTXE9VeTpnB-159" value="Right Arrow" style="whiteSpace=wrap;html=1;aspect=fixed;fontSize=15;" parent="1" vertex="1">
          <mxGeometry x="2400" y="-500" width="80" height="80" as="geometry" />
        </mxCell>
        <mxCell id="hGhjzTnvbfTXE9VeTpnB-160" value="Down Arrow" style="whiteSpace=wrap;html=1;aspect=fixed;fontSize=15;" parent="1" vertex="1">
          <mxGeometry x="2320" y="-500" width="80" height="80" as="geometry" />
        </mxCell>
        <mxCell id="hGhjzTnvbfTXE9VeTpnB-161" value="Left Arrow" style="whiteSpace=wrap;html=1;aspect=fixed;fontSize=15;" parent="1" vertex="1">
          <mxGeometry x="2240" y="-500" width="80" height="80" as="geometry" />
        </mxCell>
        <mxCell id="hGhjzTnvbfTXE9VeTpnB-162" value="Control" style="whiteSpace=wrap;html=1;aspect=fixed;fontSize=15;" parent="1" vertex="1">
          <mxGeometry x="2160" y="-420" width="80" height="80" as="geometry" />
        </mxCell>
        <mxCell id="hGhjzTnvbfTXE9VeTpnB-163" value="v" style="whiteSpace=wrap;html=1;aspect=fixed;fontSize=15;" parent="1" vertex="1">
          <mxGeometry x="2480" y="-420" width="80" height="80" as="geometry" />
        </mxCell>
        <mxCell id="hGhjzTnvbfTXE9VeTpnB-164" value="c" style="whiteSpace=wrap;html=1;aspect=fixed;fontSize=15;" parent="1" vertex="1">
          <mxGeometry x="2400" y="-420" width="80" height="80" as="geometry" />
        </mxCell>
        <mxCell id="hGhjzTnvbfTXE9VeTpnB-165" value="x" style="whiteSpace=wrap;html=1;aspect=fixed;fontSize=15;" parent="1" vertex="1">
          <mxGeometry x="2320" y="-420" width="80" height="80" as="geometry" />
        </mxCell>
        <mxCell id="hGhjzTnvbfTXE9VeTpnB-166" value="z" style="whiteSpace=wrap;html=1;aspect=fixed;fontSize=15;" parent="1" vertex="1">
          <mxGeometry x="2240" y="-420" width="80" height="80" as="geometry" />
        </mxCell>
        <mxCell id="hGhjzTnvbfTXE9VeTpnB-167" value="G" style="whiteSpace=wrap;html=1;aspect=fixed;fontSize=15;" parent="1" vertex="1">
          <mxGeometry x="2480" y="-300" width="80" height="80" as="geometry" />
        </mxCell>
        <mxCell id="hGhjzTnvbfTXE9VeTpnB-168" value="Space" style="whiteSpace=wrap;html=1;aspect=fixed;fontSize=15;" parent="1" vertex="1">
          <mxGeometry x="2400" y="-300" width="80" height="80" as="geometry" />
        </mxCell>
        <mxCell id="hGhjzTnvbfTXE9VeTpnB-169" value="Alt" style="whiteSpace=wrap;html=1;aspect=fixed;fontSize=15;" parent="1" vertex="1">
          <mxGeometry x="2320" y="-300" width="80" height="80" as="geometry" />
        </mxCell>
        <mxCell id="hGhjzTnvbfTXE9VeTpnB-170" value="Escape" style="whiteSpace=wrap;html=1;aspect=fixed;fontSize=15;" parent="1" vertex="1">
          <mxGeometry x="2640" y="-580" width="80" height="80" as="geometry" />
        </mxCell>
        <mxCell id="hGhjzTnvbfTXE9VeTpnB-171" value="Media: Next Track" style="whiteSpace=wrap;html=1;aspect=fixed;fontSize=15;" parent="1" vertex="1">
          <mxGeometry x="2880" y="-420" width="80" height="80" as="geometry" />
        </mxCell>
        <mxCell id="hGhjzTnvbfTXE9VeTpnB-172" value="Media: Play/Pause" style="whiteSpace=wrap;html=1;aspect=fixed;fontSize=15;" parent="1" vertex="1">
          <mxGeometry x="2800" y="-420" width="80" height="80" as="geometry" />
        </mxCell>
        <mxCell id="hGhjzTnvbfTXE9VeTpnB-173" value="Media: Previous Track" style="whiteSpace=wrap;html=1;aspect=fixed;fontSize=15;" parent="1" vertex="1">
          <mxGeometry x="2720" y="-420" width="80" height="80" as="geometry" />
        </mxCell>
        <mxCell id="hGhjzTnvbfTXE9VeTpnB-174" value="Enter" style="whiteSpace=wrap;html=1;aspect=fixed;fontSize=15;" parent="1" vertex="1">
          <mxGeometry x="2640" y="-500" width="80" height="80" as="geometry" />
        </mxCell>
        <mxCell id="hGhjzTnvbfTXE9VeTpnB-175" value="" style="whiteSpace=wrap;html=1;aspect=fixed;fontSize=15;" parent="1" vertex="1">
          <mxGeometry x="2880" y="-500" width="80" height="80" as="geometry" />
        </mxCell>
        <mxCell id="zB9Hcg4-IZfHeqOssu0k-2" style="edgeStyle=orthogonalEdgeStyle;rounded=0;orthogonalLoop=1;jettySize=auto;html=1;exitX=0.5;exitY=1;exitDx=0;exitDy=0;entryX=0.5;entryY=0;entryDx=0;entryDy=0;" edge="1" parent="1" source="hGhjzTnvbfTXE9VeTpnB-176" target="hGhjzTnvbfTXE9VeTpnB-146">
          <mxGeometry relative="1" as="geometry">
            <Array as="points">
              <mxPoint x="3000" y="-460" />
              <mxPoint x="3100" y="-460" />
              <mxPoint x="3100" y="-190" />
              <mxPoint x="2600" y="-190" />
            </Array>
          </mxGeometry>
        </mxCell>
        <mxCell id="hGhjzTnvbfTXE9VeTpnB-176" value="Tap Toggle: Gaming" style="whiteSpace=wrap;html=1;aspect=fixed;fontSize=15;" parent="1" vertex="1">
          <mxGeometry x="2960" y="-500" width="80" height="80" as="geometry" />
        </mxCell>
        <mxCell id="hGhjzTnvbfTXE9VeTpnB-177" value="Tap Toggle: Normal" style="whiteSpace=wrap;html=1;aspect=fixed;fontSize=15;" parent="1" vertex="1">
          <mxGeometry x="2960" y="-420" width="80" height="80" as="geometry" />
        </mxCell>
        <mxCell id="hGhjzTnvbfTXE9VeTpnB-178" value="" style="whiteSpace=wrap;html=1;aspect=fixed;fontSize=15;" parent="1" vertex="1">
          <mxGeometry x="2720" y="-500" width="80" height="80" as="geometry" />
        </mxCell>
        <mxCell id="hGhjzTnvbfTXE9VeTpnB-179" value="" style="whiteSpace=wrap;html=1;aspect=fixed;fontSize=15;" parent="1" vertex="1">
          <mxGeometry x="2640" y="-420" width="80" height="80" as="geometry" />
        </mxCell>
        <mxCell id="hGhjzTnvbfTXE9VeTpnB-181" value="Audio: Up" style="whiteSpace=wrap;html=1;aspect=fixed;fontSize=15;" parent="1" vertex="1">
          <mxGeometry x="2880" y="-580" width="80" height="80" as="geometry" />
        </mxCell>
        <mxCell id="hGhjzTnvbfTXE9VeTpnB-180" value="" style="whiteSpace=wrap;html=1;aspect=fixed;fontSize=15;" parent="1" vertex="1">
          <mxGeometry x="2800" y="-500" width="80" height="80" as="geometry" />
        </mxCell>
        <mxCell id="hGhjzTnvbfTXE9VeTpnB-182" value="Audio: Mute" style="whiteSpace=wrap;html=1;aspect=fixed;fontSize=15;" parent="1" vertex="1">
          <mxGeometry x="2800" y="-580" width="80" height="80" as="geometry" />
        </mxCell>
        <mxCell id="zB9Hcg4-IZfHeqOssu0k-5" style="edgeStyle=orthogonalEdgeStyle;rounded=0;orthogonalLoop=1;jettySize=auto;html=1;exitX=0.5;exitY=1;exitDx=0;exitDy=0;" edge="1" parent="1" source="hGhjzTnvbfTXE9VeTpnB-177" target="hGhjzTnvbfTXE9VeTpnB-145">
          <mxGeometry relative="1" as="geometry">
            <Array as="points">
              <mxPoint x="3000" y="-310" />
              <mxPoint x="3130" y="-310" />
              <mxPoint x="3130" y="1810" />
              <mxPoint x="2510" y="1810" />
            </Array>
          </mxGeometry>
        </mxCell>
        <mxCell id="hGhjzTnvbfTXE9VeTpnB-183" value="Audio Down" style="whiteSpace=wrap;html=1;aspect=fixed;fontSize=15;" parent="1" vertex="1">
          <mxGeometry x="2720" y="-580" width="80" height="80" as="geometry" />
        </mxCell>
        <mxCell id="hGhjzTnvbfTXE9VeTpnB-184" value="" style="whiteSpace=wrap;html=1;aspect=fixed;fontSize=15;" parent="1" vertex="1">
          <mxGeometry x="2800" y="-300" width="80" height="80" as="geometry" />
        </mxCell>
        <mxCell id="hGhjzTnvbfTXE9VeTpnB-185" value="" style="whiteSpace=wrap;html=1;aspect=fixed;fontSize=15;" parent="1" vertex="1">
          <mxGeometry x="2720" y="-300" width="80" height="80" as="geometry" />
        </mxCell>
        <mxCell id="hGhjzTnvbfTXE9VeTpnB-186" value="" style="whiteSpace=wrap;html=1;aspect=fixed;fontSize=15;" parent="1" vertex="1">
          <mxGeometry x="2640" y="-300" width="80" height="80" as="geometry" />
        </mxCell>
        <mxCell id="SdGfZLegvcMAtEPTVsvc-1" value="0" style="whiteSpace=wrap;html=1;aspect=fixed;fillColor=#f8cecc;strokeColor=#b85450;fontSize=16;" parent="1" vertex="1">
          <mxGeometry x="1160" y="400" width="80" height="80" as="geometry" />
        </mxCell>
        <mxCell id="SdGfZLegvcMAtEPTVsvc-2" value="" style="rounded=0;whiteSpace=wrap;html=1;fillColor=#dae8fc;strokeColor=#6c8ebf;" parent="1" vertex="1">
          <mxGeometry x="360" y="820" width="880" height="360" as="geometry" />
        </mxCell>
        <mxCell id="SdGfZLegvcMAtEPTVsvc-3" value="~" style="whiteSpace=wrap;html=1;aspect=fixed;fontSize=15;" parent="1" vertex="1">
          <mxGeometry x="360" y="820" width="80" height="80" as="geometry" />
        </mxCell>
        <mxCell id="SdGfZLegvcMAtEPTVsvc-4" value="âˆš" style="whiteSpace=wrap;html=1;aspect=fixed;fontSize=15;" parent="1" vertex="1">
          <mxGeometry x="680" y="820" width="80" height="80" as="geometry" />
        </mxCell>
        <mxCell id="SdGfZLegvcMAtEPTVsvc-5" value="Â·&lt;br&gt;(Interpunct)" style="whiteSpace=wrap;html=1;aspect=fixed;fontSize=15;" parent="1" vertex="1">
          <mxGeometry x="600" y="820" width="80" height="80" as="geometry" />
        </mxCell>
        <mxCell id="SdGfZLegvcMAtEPTVsvc-6" value="&lt;h1 class=&quot;article__title&quot;&gt;|&lt;/h1&gt;&lt;h1 class=&quot;article__title&quot;&gt;&lt;/h1&gt;" style="whiteSpace=wrap;html=1;aspect=fixed;fontSize=15;" parent="1" vertex="1">
          <mxGeometry x="520" y="820" width="80" height="80" as="geometry" />
        </mxCell>
        <mxCell id="SdGfZLegvcMAtEPTVsvc-7" value="`" style="whiteSpace=wrap;html=1;aspect=fixed;fontSize=15;" parent="1" vertex="1">
          <mxGeometry x="440" y="820" width="80" height="80" as="geometry" />
        </mxCell>
        <mxCell id="SdGfZLegvcMAtEPTVsvc-8" value="Â¥" style="whiteSpace=wrap;html=1;aspect=fixed;fontSize=15;" parent="1" vertex="1">
          <mxGeometry x="360" y="900" width="80" height="80" as="geometry" />
        </mxCell>
        <mxCell id="SdGfZLegvcMAtEPTVsvc-9" value="^" style="whiteSpace=wrap;html=1;aspect=fixed;fontSize=15;" parent="1" vertex="1">
          <mxGeometry x="680" y="900" width="80" height="80" as="geometry" />
        </mxCell>
        <mxCell id="SdGfZLegvcMAtEPTVsvc-10" value="Â¢" style="whiteSpace=wrap;html=1;aspect=fixed;fontSize=15;" parent="1" vertex="1">
          <mxGeometry x="600" y="900" width="80" height="80" as="geometry" />
        </mxCell>
        <mxCell id="SdGfZLegvcMAtEPTVsvc-11" value="$" style="whiteSpace=wrap;html=1;aspect=fixed;fontSize=15;" parent="1" vertex="1">
          <mxGeometry x="520" y="900" width="80" height="80" as="geometry" />
        </mxCell>
        <mxCell id="SdGfZLegvcMAtEPTVsvc-12" value="Â£" style="whiteSpace=wrap;html=1;aspect=fixed;fontSize=15;" parent="1" vertex="1">
          <mxGeometry x="440" y="900" width="80" height="80" as="geometry" />
        </mxCell>
        <mxCell id="SdGfZLegvcMAtEPTVsvc-13" value="_" style="whiteSpace=wrap;html=1;aspect=fixed;fontSize=15;" parent="1" vertex="1">
          <mxGeometry x="360" y="980" width="80" height="80" as="geometry" />
        </mxCell>
        <mxCell id="SdGfZLegvcMAtEPTVsvc-14" value="" style="whiteSpace=wrap;html=1;aspect=fixed;fontSize=15;" parent="1" vertex="1">
          <mxGeometry x="680" y="980" width="80" height="80" as="geometry" />
        </mxCell>
        <mxCell id="SdGfZLegvcMAtEPTVsvc-15" value="â„¢" style="whiteSpace=wrap;html=1;aspect=fixed;fontSize=15;" parent="1" vertex="1">
          <mxGeometry x="600" y="980" width="80" height="80" as="geometry" />
        </mxCell>
        <mxCell id="SdGfZLegvcMAtEPTVsvc-16" value="Â®" style="whiteSpace=wrap;html=1;aspect=fixed;fontSize=15;" parent="1" vertex="1">
          <mxGeometry x="520" y="980" width="80" height="80" as="geometry" />
        </mxCell>
        <mxCell id="SdGfZLegvcMAtEPTVsvc-17" value="Â©" style="whiteSpace=wrap;html=1;aspect=fixed;fontSize=15;" parent="1" vertex="1">
          <mxGeometry x="440" y="980" width="80" height="80" as="geometry" />
        </mxCell>
        <mxCell id="SdGfZLegvcMAtEPTVsvc-18" value="&amp;lt;" style="whiteSpace=wrap;html=1;aspect=fixed;fontSize=15;" parent="1" vertex="1">
          <mxGeometry x="680" y="1100" width="80" height="80" as="geometry" />
        </mxCell>
        <mxCell id="SdGfZLegvcMAtEPTVsvc-19" value="Space" style="whiteSpace=wrap;html=1;aspect=fixed;fontSize=15;" parent="1" vertex="1">
          <mxGeometry x="600" y="1100" width="80" height="80" as="geometry" />
        </mxCell>
        <mxCell id="SdGfZLegvcMAtEPTVsvc-21" value="&lt;span class=&quot;box&quot;&gt;Ï€&lt;/span&gt;" style="whiteSpace=wrap;html=1;aspect=fixed;fontSize=15;" parent="1" vertex="1">
          <mxGeometry x="840" y="820" width="80" height="80" as="geometry" />
        </mxCell>
        <mxCell id="SdGfZLegvcMAtEPTVsvc-22" value="Â¶&lt;br&gt;(Pilcrow)&lt;b&gt;&lt;br&gt;&lt;/b&gt;" style="whiteSpace=wrap;html=1;aspect=fixed;fontSize=15;" parent="1" vertex="1">
          <mxGeometry x="1080" y="820" width="80" height="80" as="geometry" />
        </mxCell>
        <mxCell id="SdGfZLegvcMAtEPTVsvc-23" value="&lt;span class=&quot;box&quot;&gt;Ã—&lt;br&gt;(Math&lt;br&gt;Multipaction)&lt;br&gt;&lt;/span&gt;" style="whiteSpace=wrap;html=1;aspect=fixed;fontSize=15;" parent="1" vertex="1">
          <mxGeometry x="1000" y="820" width="80" height="80" as="geometry" />
        </mxCell>
        <mxCell id="SdGfZLegvcMAtEPTVsvc-24" value="&lt;span class=&quot;box&quot;&gt;Ã·&lt;/span&gt;" style="whiteSpace=wrap;html=1;aspect=fixed;fontSize=15;" parent="1" vertex="1">
          <mxGeometry x="920" y="820" width="80" height="80" as="geometry" />
        </mxCell>
        <mxCell id="SdGfZLegvcMAtEPTVsvc-25" value="Â°" style="whiteSpace=wrap;html=1;aspect=fixed;fontSize=15;" parent="1" vertex="1">
          <mxGeometry x="840" y="900" width="80" height="80" as="geometry" />
        </mxCell>
        <mxCell id="SdGfZLegvcMAtEPTVsvc-26" value="&lt;span class=&quot;expandableItem&quot;&gt;\&lt;/span&gt;" style="whiteSpace=wrap;html=1;aspect=fixed;fontSize=15;" parent="1" vertex="1">
          <mxGeometry x="1160" y="900" width="80" height="80" as="geometry" />
        </mxCell>
        <mxCell id="SdGfZLegvcMAtEPTVsvc-27" value="}" style="whiteSpace=wrap;html=1;aspect=fixed;fontSize=15;" parent="1" vertex="1">
          <mxGeometry x="1080" y="900" width="80" height="80" as="geometry" />
        </mxCell>
        <mxCell id="SdGfZLegvcMAtEPTVsvc-28" value="{" style="whiteSpace=wrap;html=1;aspect=fixed;fontSize=15;" parent="1" vertex="1">
          <mxGeometry x="1000" y="900" width="80" height="80" as="geometry" />
        </mxCell>
        <mxCell id="SdGfZLegvcMAtEPTVsvc-29" value="=" style="whiteSpace=wrap;html=1;aspect=fixed;fontSize=15;" parent="1" vertex="1">
          <mxGeometry x="920" y="900" width="80" height="80" as="geometry" />
        </mxCell>
        <mxCell id="SdGfZLegvcMAtEPTVsvc-30" value="" style="whiteSpace=wrap;html=1;aspect=fixed;fontSize=15;" parent="1" vertex="1">
          <mxGeometry x="840" y="980" width="80" height="80" as="geometry" />
        </mxCell>
        <mxCell id="SdGfZLegvcMAtEPTVsvc-31" value="Backspace" style="whiteSpace=wrap;html=1;aspect=fixed;fontSize=15;" parent="1" vertex="1">
          <mxGeometry x="1160" y="980" width="80" height="80" as="geometry" />
        </mxCell>
        <mxCell id="SdGfZLegvcMAtEPTVsvc-32" value="]" style="whiteSpace=wrap;html=1;aspect=fixed;fontSize=15;" parent="1" vertex="1">
          <mxGeometry x="1080" y="980" width="80" height="80" as="geometry" />
        </mxCell>
        <mxCell id="SdGfZLegvcMAtEPTVsvc-33" value="[" style="whiteSpace=wrap;html=1;aspect=fixed;fontSize=15;" parent="1" vertex="1">
          <mxGeometry x="1000" y="980" width="80" height="80" as="geometry" />
        </mxCell>
        <mxCell id="SdGfZLegvcMAtEPTVsvc-34" value="âœ“" style="whiteSpace=wrap;html=1;aspect=fixed;fontSize=15;" parent="1" vertex="1">
          <mxGeometry x="920" y="980" width="80" height="80" as="geometry" />
        </mxCell>
        <mxCell id="SdGfZLegvcMAtEPTVsvc-43" style="edgeStyle=orthogonalEdgeStyle;rounded=0;orthogonalLoop=1;jettySize=auto;html=1;entryX=0.5;entryY=1;entryDx=0;entryDy=0;" parent="1" source="SdGfZLegvcMAtEPTVsvc-35" target="hGhjzTnvbfTXE9VeTpnB-144" edge="1">
          <mxGeometry relative="1" as="geometry">
            <Array as="points">
              <mxPoint x="1040" y="1280" />
              <mxPoint x="1310" y="1280" />
              <mxPoint x="1310" y="780" />
              <mxPoint x="800" y="780" />
            </Array>
          </mxGeometry>
        </mxCell>
        <mxCell id="SdGfZLegvcMAtEPTVsvc-35" value="Sym - Press" style="whiteSpace=wrap;html=1;aspect=fixed;fontSize=15;" parent="1" vertex="1">
          <mxGeometry x="1000" y="1100" width="80" height="80" as="geometry" />
        </mxCell>
        <mxCell id="SdGfZLegvcMAtEPTVsvc-36" value="Space" style="whiteSpace=wrap;html=1;aspect=fixed;fontSize=15;" parent="1" vertex="1">
          <mxGeometry x="920" y="1100" width="80" height="80" as="geometry" />
        </mxCell>
        <mxCell id="SdGfZLegvcMAtEPTVsvc-37" value="&amp;gt;" style="whiteSpace=wrap;html=1;aspect=fixed;fontSize=15;" parent="1" vertex="1">
          <mxGeometry x="840" y="1100" width="80" height="80" as="geometry" />
        </mxCell>
        <mxCell id="SdGfZLegvcMAtEPTVsvc-38" value="âˆ†" style="whiteSpace=wrap;html=1;aspect=fixed;fillColor=#f8cecc;strokeColor=#b85450;fontSize=16;" parent="1" vertex="1">
          <mxGeometry x="1160" y="820" width="80" height="80" as="geometry" />
        </mxCell>
        <mxCell id="SdGfZLegvcMAtEPTVsvc-42" style="edgeStyle=orthogonalEdgeStyle;rounded=0;orthogonalLoop=1;jettySize=auto;html=1;entryX=0.5;entryY=1;entryDx=0;entryDy=0;" parent="1" source="SdGfZLegvcMAtEPTVsvc-41" target="hGhjzTnvbfTXE9VeTpnB-144" edge="1">
          <mxGeometry relative="1" as="geometry">
            <Array as="points">
              <mxPoint x="560" y="1280" />
              <mxPoint x="310" y="1280" />
              <mxPoint x="310" y="780" />
              <mxPoint x="800" y="780" />
            </Array>
          </mxGeometry>
        </mxCell>
        <mxCell id="SdGfZLegvcMAtEPTVsvc-41" value="Sym - Press" style="whiteSpace=wrap;html=1;aspect=fixed;fontSize=15;" parent="1" vertex="1">
          <mxGeometry x="520" y="1100" width="80" height="80" as="geometry" />
        </mxCell>
        <mxCell id="SdGfZLegvcMAtEPTVsvc-81" value="Template" style="rounded=0;whiteSpace=wrap;html=1;fillColor=#dae8fc;strokeColor=#6c8ebf;" parent="1" vertex="1">
          <mxGeometry x="2060" y="1390" width="880" height="360" as="geometry" />
        </mxCell>
        <mxCell id="SdGfZLegvcMAtEPTVsvc-82" value="" style="whiteSpace=wrap;html=1;aspect=fixed;fontSize=16;" parent="1" vertex="1">
          <mxGeometry x="2060" y="1390" width="80" height="80" as="geometry" />
        </mxCell>
        <mxCell id="SdGfZLegvcMAtEPTVsvc-83" value="" style="whiteSpace=wrap;html=1;aspect=fixed;fontSize=16;" parent="1" vertex="1">
          <mxGeometry x="2380" y="1390" width="80" height="80" as="geometry" />
        </mxCell>
        <mxCell id="SdGfZLegvcMAtEPTVsvc-84" value="" style="whiteSpace=wrap;html=1;aspect=fixed;fontSize=16;" parent="1" vertex="1">
          <mxGeometry x="2300" y="1390" width="80" height="80" as="geometry" />
        </mxCell>
        <mxCell id="SdGfZLegvcMAtEPTVsvc-85" value="" style="whiteSpace=wrap;html=1;aspect=fixed;fontSize=16;" parent="1" vertex="1">
          <mxGeometry x="2220" y="1390" width="80" height="80" as="geometry" />
        </mxCell>
        <mxCell id="SdGfZLegvcMAtEPTVsvc-86" value="" style="whiteSpace=wrap;html=1;aspect=fixed;fontSize=16;" parent="1" vertex="1">
          <mxGeometry x="2140" y="1390" width="80" height="80" as="geometry" />
        </mxCell>
        <mxCell id="SdGfZLegvcMAtEPTVsvc-87" value="" style="whiteSpace=wrap;html=1;aspect=fixed;fontSize=16;" parent="1" vertex="1">
          <mxGeometry x="2060" y="1470" width="80" height="80" as="geometry" />
        </mxCell>
        <mxCell id="SdGfZLegvcMAtEPTVsvc-88" value="" style="whiteSpace=wrap;html=1;aspect=fixed;fontSize=16;" parent="1" vertex="1">
          <mxGeometry x="2380" y="1470" width="80" height="80" as="geometry" />
        </mxCell>
        <mxCell id="SdGfZLegvcMAtEPTVsvc-89" value="" style="whiteSpace=wrap;html=1;aspect=fixed;fontSize=16;" parent="1" vertex="1">
          <mxGeometry x="2300" y="1470" width="80" height="80" as="geometry" />
        </mxCell>
        <mxCell id="SdGfZLegvcMAtEPTVsvc-90" value="" style="whiteSpace=wrap;html=1;aspect=fixed;fontSize=16;" parent="1" vertex="1">
          <mxGeometry x="2220" y="1470" width="80" height="80" as="geometry" />
        </mxCell>
        <mxCell id="SdGfZLegvcMAtEPTVsvc-91" value="" style="whiteSpace=wrap;html=1;aspect=fixed;fontSize=16;" parent="1" vertex="1">
          <mxGeometry x="2140" y="1470" width="80" height="80" as="geometry" />
        </mxCell>
        <mxCell id="SdGfZLegvcMAtEPTVsvc-92" value="" style="whiteSpace=wrap;html=1;aspect=fixed;fontSize=16;" parent="1" vertex="1">
          <mxGeometry x="2060" y="1550" width="80" height="80" as="geometry" />
        </mxCell>
        <mxCell id="SdGfZLegvcMAtEPTVsvc-93" value="" style="whiteSpace=wrap;html=1;aspect=fixed;fontSize=16;" parent="1" vertex="1">
          <mxGeometry x="2380" y="1550" width="80" height="80" as="geometry" />
        </mxCell>
        <mxCell id="SdGfZLegvcMAtEPTVsvc-94" value="" style="whiteSpace=wrap;html=1;aspect=fixed;fontSize=16;" parent="1" vertex="1">
          <mxGeometry x="2300" y="1550" width="80" height="80" as="geometry" />
        </mxCell>
        <mxCell id="SdGfZLegvcMAtEPTVsvc-95" value="" style="whiteSpace=wrap;html=1;aspect=fixed;fontSize=16;" parent="1" vertex="1">
          <mxGeometry x="2220" y="1550" width="80" height="80" as="geometry" />
        </mxCell>
        <mxCell id="SdGfZLegvcMAtEPTVsvc-96" value="" style="whiteSpace=wrap;html=1;aspect=fixed;fontSize=16;" parent="1" vertex="1">
          <mxGeometry x="2140" y="1550" width="80" height="80" as="geometry" />
        </mxCell>
        <mxCell id="SdGfZLegvcMAtEPTVsvc-97" value="" style="whiteSpace=wrap;html=1;aspect=fixed;fontSize=16;" parent="1" vertex="1">
          <mxGeometry x="2380" y="1670" width="80" height="80" as="geometry" />
        </mxCell>
        <mxCell id="SdGfZLegvcMAtEPTVsvc-98" value="" style="whiteSpace=wrap;html=1;aspect=fixed;fontSize=16;" parent="1" vertex="1">
          <mxGeometry x="2300" y="1670" width="80" height="80" as="geometry" />
        </mxCell>
        <mxCell id="SdGfZLegvcMAtEPTVsvc-99" value="" style="whiteSpace=wrap;html=1;aspect=fixed;fontSize=16;" parent="1" vertex="1">
          <mxGeometry x="2220" y="1670" width="80" height="80" as="geometry" />
        </mxCell>
        <mxCell id="SdGfZLegvcMAtEPTVsvc-100" value="" style="whiteSpace=wrap;html=1;aspect=fixed;fontSize=16;" parent="1" vertex="1">
          <mxGeometry x="2540" y="1390" width="80" height="80" as="geometry" />
        </mxCell>
        <mxCell id="SdGfZLegvcMAtEPTVsvc-101" value="" style="whiteSpace=wrap;html=1;aspect=fixed;fontSize=16;" parent="1" vertex="1">
          <mxGeometry x="2780" y="1390" width="80" height="80" as="geometry" />
        </mxCell>
        <mxCell id="SdGfZLegvcMAtEPTVsvc-102" value="" style="whiteSpace=wrap;html=1;aspect=fixed;fontSize=16;" parent="1" vertex="1">
          <mxGeometry x="2700" y="1390" width="80" height="80" as="geometry" />
        </mxCell>
        <mxCell id="SdGfZLegvcMAtEPTVsvc-103" value="" style="whiteSpace=wrap;html=1;aspect=fixed;fontSize=16;" parent="1" vertex="1">
          <mxGeometry x="2620" y="1390" width="80" height="80" as="geometry" />
        </mxCell>
        <mxCell id="SdGfZLegvcMAtEPTVsvc-104" value="" style="whiteSpace=wrap;html=1;aspect=fixed;fontSize=16;" parent="1" vertex="1">
          <mxGeometry x="2540" y="1470" width="80" height="80" as="geometry" />
        </mxCell>
        <mxCell id="SdGfZLegvcMAtEPTVsvc-105" value="" style="whiteSpace=wrap;html=1;aspect=fixed;fontSize=16;" parent="1" vertex="1">
          <mxGeometry x="2860" y="1470" width="80" height="80" as="geometry" />
        </mxCell>
        <mxCell id="SdGfZLegvcMAtEPTVsvc-106" value="" style="whiteSpace=wrap;html=1;aspect=fixed;fontSize=16;" parent="1" vertex="1">
          <mxGeometry x="2780" y="1470" width="80" height="80" as="geometry" />
        </mxCell>
        <mxCell id="SdGfZLegvcMAtEPTVsvc-107" value="" style="whiteSpace=wrap;html=1;aspect=fixed;fontSize=16;" parent="1" vertex="1">
          <mxGeometry x="2700" y="1470" width="80" height="80" as="geometry" />
        </mxCell>
        <mxCell id="SdGfZLegvcMAtEPTVsvc-108" value="" style="whiteSpace=wrap;html=1;aspect=fixed;fontSize=16;" parent="1" vertex="1">
          <mxGeometry x="2620" y="1470" width="80" height="80" as="geometry" />
        </mxCell>
        <mxCell id="SdGfZLegvcMAtEPTVsvc-109" value="" style="whiteSpace=wrap;html=1;aspect=fixed;fontSize=16;" parent="1" vertex="1">
          <mxGeometry x="2540" y="1550" width="80" height="80" as="geometry" />
        </mxCell>
        <mxCell id="SdGfZLegvcMAtEPTVsvc-110" value="" style="whiteSpace=wrap;html=1;aspect=fixed;fontSize=16;" parent="1" vertex="1">
          <mxGeometry x="2860" y="1550" width="80" height="80" as="geometry" />
        </mxCell>
        <mxCell id="SdGfZLegvcMAtEPTVsvc-111" value="" style="whiteSpace=wrap;html=1;aspect=fixed;fontSize=16;" parent="1" vertex="1">
          <mxGeometry x="2780" y="1550" width="80" height="80" as="geometry" />
        </mxCell>
        <mxCell id="SdGfZLegvcMAtEPTVsvc-112" value="" style="whiteSpace=wrap;html=1;aspect=fixed;fontSize=16;" parent="1" vertex="1">
          <mxGeometry x="2700" y="1550" width="80" height="80" as="geometry" />
        </mxCell>
        <mxCell id="SdGfZLegvcMAtEPTVsvc-113" value="" style="whiteSpace=wrap;html=1;aspect=fixed;fontSize=16;" parent="1" vertex="1">
          <mxGeometry x="2620" y="1550" width="80" height="80" as="geometry" />
        </mxCell>
        <mxCell id="SdGfZLegvcMAtEPTVsvc-114" value="" style="whiteSpace=wrap;html=1;aspect=fixed;fontSize=16;" parent="1" vertex="1">
          <mxGeometry x="2700" y="1670" width="80" height="80" as="geometry" />
        </mxCell>
        <mxCell id="SdGfZLegvcMAtEPTVsvc-115" value="" style="whiteSpace=wrap;html=1;aspect=fixed;fontSize=16;" parent="1" vertex="1">
          <mxGeometry x="2620" y="1670" width="80" height="80" as="geometry" />
        </mxCell>
        <mxCell id="SdGfZLegvcMAtEPTVsvc-116" value="" style="whiteSpace=wrap;html=1;aspect=fixed;fontSize=16;" parent="1" vertex="1">
          <mxGeometry x="2540" y="1670" width="80" height="80" as="geometry" />
        </mxCell>
        <mxCell id="SdGfZLegvcMAtEPTVsvc-117" value="" style="whiteSpace=wrap;html=1;aspect=fixed;fillColor=#f8cecc;strokeColor=#b85450;fontSize=16;" parent="1" vertex="1">
          <mxGeometry x="2860" y="1390" width="80" height="80" as="geometry" />
        </mxCell>
        <mxCell id="SdGfZLegvcMAtEPTVsvc-156" value="" style="rounded=0;whiteSpace=wrap;html=1;fillColor=#dae8fc;strokeColor=#6c8ebf;" parent="1" vertex="1">
          <mxGeometry x="-740" y="-130" width="880" height="360" as="geometry" />
        </mxCell>
        <mxCell id="SdGfZLegvcMAtEPTVsvc-157" value="" style="whiteSpace=wrap;html=1;aspect=fixed;fontSize=16;" parent="1" vertex="1">
          <mxGeometry x="-740" y="-130" width="80" height="80" as="geometry" />
        </mxCell>
        <mxCell id="SdGfZLegvcMAtEPTVsvc-158" value="" style="whiteSpace=wrap;html=1;aspect=fixed;fontSize=16;" parent="1" vertex="1">
          <mxGeometry x="-420" y="-130" width="80" height="80" as="geometry" />
        </mxCell>
        <mxCell id="SdGfZLegvcMAtEPTVsvc-159" value="" style="whiteSpace=wrap;html=1;aspect=fixed;fontSize=16;" parent="1" vertex="1">
          <mxGeometry x="-500" y="-130" width="80" height="80" as="geometry" />
        </mxCell>
        <mxCell id="SdGfZLegvcMAtEPTVsvc-160" value="" style="whiteSpace=wrap;html=1;aspect=fixed;fontSize=16;" parent="1" vertex="1">
          <mxGeometry x="-580" y="-130" width="80" height="80" as="geometry" />
        </mxCell>
        <mxCell id="SdGfZLegvcMAtEPTVsvc-161" value="" style="whiteSpace=wrap;html=1;aspect=fixed;fontSize=16;" parent="1" vertex="1">
          <mxGeometry x="-660" y="-130" width="80" height="80" as="geometry" />
        </mxCell>
        <mxCell id="SdGfZLegvcMAtEPTVsvc-162" value="" style="whiteSpace=wrap;html=1;aspect=fixed;fontSize=16;" parent="1" vertex="1">
          <mxGeometry x="-740" y="-50" width="80" height="80" as="geometry" />
        </mxCell>
        <mxCell id="SdGfZLegvcMAtEPTVsvc-163" value="" style="whiteSpace=wrap;html=1;aspect=fixed;fontSize=16;" parent="1" vertex="1">
          <mxGeometry x="-420" y="-50" width="80" height="80" as="geometry" />
        </mxCell>
        <mxCell id="SdGfZLegvcMAtEPTVsvc-164" value="" style="whiteSpace=wrap;html=1;aspect=fixed;fontSize=16;" parent="1" vertex="1">
          <mxGeometry x="-500" y="-50" width="80" height="80" as="geometry" />
        </mxCell>
        <mxCell id="SdGfZLegvcMAtEPTVsvc-165" value="" style="whiteSpace=wrap;html=1;aspect=fixed;fontSize=16;" parent="1" vertex="1">
          <mxGeometry x="-580" y="-50" width="80" height="80" as="geometry" />
        </mxCell>
        <mxCell id="SdGfZLegvcMAtEPTVsvc-166" value="" style="whiteSpace=wrap;html=1;aspect=fixed;fontSize=16;" parent="1" vertex="1">
          <mxGeometry x="-660" y="-50" width="80" height="80" as="geometry" />
        </mxCell>
        <mxCell id="SdGfZLegvcMAtEPTVsvc-167" value="" style="whiteSpace=wrap;html=1;aspect=fixed;fontSize=16;" parent="1" vertex="1">
          <mxGeometry x="-740" y="30" width="80" height="80" as="geometry" />
        </mxCell>
        <mxCell id="SdGfZLegvcMAtEPTVsvc-168" value="" style="whiteSpace=wrap;html=1;aspect=fixed;fontSize=16;" parent="1" vertex="1">
          <mxGeometry x="-420" y="30" width="80" height="80" as="geometry" />
        </mxCell>
        <mxCell id="SdGfZLegvcMAtEPTVsvc-169" value="" style="whiteSpace=wrap;html=1;aspect=fixed;fontSize=16;" parent="1" vertex="1">
          <mxGeometry x="-500" y="30" width="80" height="80" as="geometry" />
        </mxCell>
        <mxCell id="SdGfZLegvcMAtEPTVsvc-170" value="" style="whiteSpace=wrap;html=1;aspect=fixed;fontSize=16;" parent="1" vertex="1">
          <mxGeometry x="-580" y="30" width="80" height="80" as="geometry" />
        </mxCell>
        <mxCell id="SdGfZLegvcMAtEPTVsvc-171" value="" style="whiteSpace=wrap;html=1;aspect=fixed;fontSize=16;" parent="1" vertex="1">
          <mxGeometry x="-660" y="30" width="80" height="80" as="geometry" />
        </mxCell>
        <mxCell id="SdGfZLegvcMAtEPTVsvc-172" value="" style="whiteSpace=wrap;html=1;aspect=fixed;fontSize=16;" parent="1" vertex="1">
          <mxGeometry x="-420" y="150" width="80" height="80" as="geometry" />
        </mxCell>
        <mxCell id="SdGfZLegvcMAtEPTVsvc-173" value="" style="whiteSpace=wrap;html=1;aspect=fixed;fontSize=16;" parent="1" vertex="1">
          <mxGeometry x="-500" y="150" width="80" height="80" as="geometry" />
        </mxCell>
        <mxCell id="SdGfZLegvcMAtEPTVsvc-174" value="" style="whiteSpace=wrap;html=1;aspect=fixed;fontSize=16;" parent="1" vertex="1">
          <mxGeometry x="-580" y="150" width="80" height="80" as="geometry" />
        </mxCell>
        <mxCell id="SdGfZLegvcMAtEPTVsvc-175" value="" style="whiteSpace=wrap;html=1;aspect=fixed;fontSize=16;" parent="1" vertex="1">
          <mxGeometry x="-260" y="-130" width="80" height="80" as="geometry" />
        </mxCell>
        <mxCell id="SdGfZLegvcMAtEPTVsvc-176" value="" style="whiteSpace=wrap;html=1;aspect=fixed;fontSize=16;" parent="1" vertex="1">
          <mxGeometry x="-20" y="-130" width="80" height="80" as="geometry" />
        </mxCell>
        <mxCell id="SdGfZLegvcMAtEPTVsvc-177" value="" style="whiteSpace=wrap;html=1;aspect=fixed;fontSize=16;" parent="1" vertex="1">
          <mxGeometry x="-100" y="-130" width="80" height="80" as="geometry" />
        </mxCell>
        <mxCell id="SdGfZLegvcMAtEPTVsvc-178" value="" style="whiteSpace=wrap;html=1;aspect=fixed;fontSize=16;" parent="1" vertex="1">
          <mxGeometry x="-180" y="-130" width="80" height="80" as="geometry" />
        </mxCell>
        <mxCell id="SdGfZLegvcMAtEPTVsvc-179" value="" style="whiteSpace=wrap;html=1;aspect=fixed;fontSize=16;" parent="1" vertex="1">
          <mxGeometry x="-260" y="-50" width="80" height="80" as="geometry" />
        </mxCell>
        <mxCell id="SdGfZLegvcMAtEPTVsvc-180" value="" style="whiteSpace=wrap;html=1;aspect=fixed;fontSize=16;" parent="1" vertex="1">
          <mxGeometry x="60" y="-50" width="80" height="80" as="geometry" />
        </mxCell>
        <mxCell id="SdGfZLegvcMAtEPTVsvc-181" value="" style="whiteSpace=wrap;html=1;aspect=fixed;fontSize=16;" parent="1" vertex="1">
          <mxGeometry x="-20" y="-50" width="80" height="80" as="geometry" />
        </mxCell>
        <mxCell id="SdGfZLegvcMAtEPTVsvc-182" value="" style="whiteSpace=wrap;html=1;aspect=fixed;fontSize=16;" parent="1" vertex="1">
          <mxGeometry x="-100" y="-50" width="80" height="80" as="geometry" />
        </mxCell>
        <mxCell id="SdGfZLegvcMAtEPTVsvc-183" value="" style="whiteSpace=wrap;html=1;aspect=fixed;fontSize=16;" parent="1" vertex="1">
          <mxGeometry x="-180" y="-50" width="80" height="80" as="geometry" />
        </mxCell>
        <mxCell id="SdGfZLegvcMAtEPTVsvc-184" value="" style="whiteSpace=wrap;html=1;aspect=fixed;fontSize=16;" parent="1" vertex="1">
          <mxGeometry x="-260" y="30" width="80" height="80" as="geometry" />
        </mxCell>
        <mxCell id="SdGfZLegvcMAtEPTVsvc-185" value="" style="whiteSpace=wrap;html=1;aspect=fixed;fontSize=16;" parent="1" vertex="1">
          <mxGeometry x="60" y="30" width="80" height="80" as="geometry" />
        </mxCell>
        <mxCell id="SdGfZLegvcMAtEPTVsvc-186" value="" style="whiteSpace=wrap;html=1;aspect=fixed;fontSize=16;" parent="1" vertex="1">
          <mxGeometry x="-20" y="30" width="80" height="80" as="geometry" />
        </mxCell>
        <mxCell id="SdGfZLegvcMAtEPTVsvc-187" value="" style="whiteSpace=wrap;html=1;aspect=fixed;fontSize=16;" parent="1" vertex="1">
          <mxGeometry x="-100" y="30" width="80" height="80" as="geometry" />
        </mxCell>
        <mxCell id="SdGfZLegvcMAtEPTVsvc-188" value="" style="whiteSpace=wrap;html=1;aspect=fixed;fontSize=16;" parent="1" vertex="1">
          <mxGeometry x="-180" y="30" width="80" height="80" as="geometry" />
        </mxCell>
        <mxCell id="SdGfZLegvcMAtEPTVsvc-189" value="" style="whiteSpace=wrap;html=1;aspect=fixed;fontSize=16;" parent="1" vertex="1">
          <mxGeometry x="-100" y="150" width="80" height="80" as="geometry" />
        </mxCell>
        <mxCell id="SdGfZLegvcMAtEPTVsvc-190" value="" style="whiteSpace=wrap;html=1;aspect=fixed;fontSize=16;" parent="1" vertex="1">
          <mxGeometry x="-180" y="150" width="80" height="80" as="geometry" />
        </mxCell>
        <mxCell id="SdGfZLegvcMAtEPTVsvc-191" value="" style="whiteSpace=wrap;html=1;aspect=fixed;fontSize=16;" parent="1" vertex="1">
          <mxGeometry x="-260" y="150" width="80" height="80" as="geometry" />
        </mxCell>
        <mxCell id="SdGfZLegvcMAtEPTVsvc-192" value="" style="whiteSpace=wrap;html=1;aspect=fixed;fillColor=#f8cecc;strokeColor=#b85450;fontSize=16;" parent="1" vertex="1">
          <mxGeometry x="60" y="-130" width="80" height="80" as="geometry" />
        </mxCell>
        <mxCell id="SdGfZLegvcMAtEPTVsvc-193" value="" style="rounded=0;whiteSpace=wrap;html=1;fillColor=#dae8fc;strokeColor=#6c8ebf;" parent="1" vertex="1">
          <mxGeometry x="-740" y="390" width="880" height="360" as="geometry" />
        </mxCell>
        <mxCell id="SdGfZLegvcMAtEPTVsvc-194" value="" style="whiteSpace=wrap;html=1;aspect=fixed;fontSize=16;" parent="1" vertex="1">
          <mxGeometry x="-740" y="390" width="80" height="80" as="geometry" />
        </mxCell>
        <mxCell id="SdGfZLegvcMAtEPTVsvc-195" value="" style="whiteSpace=wrap;html=1;aspect=fixed;fontSize=16;" parent="1" vertex="1">
          <mxGeometry x="-420" y="390" width="80" height="80" as="geometry" />
        </mxCell>
        <mxCell id="SdGfZLegvcMAtEPTVsvc-196" value="" style="whiteSpace=wrap;html=1;aspect=fixed;fontSize=16;" parent="1" vertex="1">
          <mxGeometry x="-500" y="390" width="80" height="80" as="geometry" />
        </mxCell>
        <mxCell id="SdGfZLegvcMAtEPTVsvc-197" value="" style="whiteSpace=wrap;html=1;aspect=fixed;fontSize=16;" parent="1" vertex="1">
          <mxGeometry x="-580" y="390" width="80" height="80" as="geometry" />
        </mxCell>
        <mxCell id="SdGfZLegvcMAtEPTVsvc-198" value="" style="whiteSpace=wrap;html=1;aspect=fixed;fontSize=16;" parent="1" vertex="1">
          <mxGeometry x="-660" y="390" width="80" height="80" as="geometry" />
        </mxCell>
        <mxCell id="SdGfZLegvcMAtEPTVsvc-199" value="" style="whiteSpace=wrap;html=1;aspect=fixed;fontSize=16;" parent="1" vertex="1">
          <mxGeometry x="-740" y="470" width="80" height="80" as="geometry" />
        </mxCell>
        <mxCell id="SdGfZLegvcMAtEPTVsvc-200" value="" style="whiteSpace=wrap;html=1;aspect=fixed;fontSize=16;" parent="1" vertex="1">
          <mxGeometry x="-420" y="470" width="80" height="80" as="geometry" />
        </mxCell>
        <mxCell id="SdGfZLegvcMAtEPTVsvc-201" value="" style="whiteSpace=wrap;html=1;aspect=fixed;fontSize=16;" parent="1" vertex="1">
          <mxGeometry x="-500" y="470" width="80" height="80" as="geometry" />
        </mxCell>
        <mxCell id="SdGfZLegvcMAtEPTVsvc-202" value="" style="whiteSpace=wrap;html=1;aspect=fixed;fontSize=16;" parent="1" vertex="1">
          <mxGeometry x="-580" y="470" width="80" height="80" as="geometry" />
        </mxCell>
        <mxCell id="SdGfZLegvcMAtEPTVsvc-203" value="" style="whiteSpace=wrap;html=1;aspect=fixed;fontSize=16;" parent="1" vertex="1">
          <mxGeometry x="-660" y="470" width="80" height="80" as="geometry" />
        </mxCell>
        <mxCell id="SdGfZLegvcMAtEPTVsvc-204" value="" style="whiteSpace=wrap;html=1;aspect=fixed;fontSize=16;" parent="1" vertex="1">
          <mxGeometry x="-740" y="550" width="80" height="80" as="geometry" />
        </mxCell>
        <mxCell id="SdGfZLegvcMAtEPTVsvc-205" value="" style="whiteSpace=wrap;html=1;aspect=fixed;fontSize=16;" parent="1" vertex="1">
          <mxGeometry x="-420" y="550" width="80" height="80" as="geometry" />
        </mxCell>
        <mxCell id="SdGfZLegvcMAtEPTVsvc-206" value="" style="whiteSpace=wrap;html=1;aspect=fixed;fontSize=16;" parent="1" vertex="1">
          <mxGeometry x="-500" y="550" width="80" height="80" as="geometry" />
        </mxCell>
        <mxCell id="SdGfZLegvcMAtEPTVsvc-207" value="" style="whiteSpace=wrap;html=1;aspect=fixed;fontSize=16;" parent="1" vertex="1">
          <mxGeometry x="-580" y="550" width="80" height="80" as="geometry" />
        </mxCell>
        <mxCell id="SdGfZLegvcMAtEPTVsvc-208" value="" style="whiteSpace=wrap;html=1;aspect=fixed;fontSize=16;" parent="1" vertex="1">
          <mxGeometry x="-660" y="550" width="80" height="80" as="geometry" />
        </mxCell>
        <mxCell id="SdGfZLegvcMAtEPTVsvc-209" value="" style="whiteSpace=wrap;html=1;aspect=fixed;fontSize=16;" parent="1" vertex="1">
          <mxGeometry x="-420" y="670" width="80" height="80" as="geometry" />
        </mxCell>
        <mxCell id="SdGfZLegvcMAtEPTVsvc-210" value="" style="whiteSpace=wrap;html=1;aspect=fixed;fontSize=16;" parent="1" vertex="1">
          <mxGeometry x="-500" y="670" width="80" height="80" as="geometry" />
        </mxCell>
        <mxCell id="SdGfZLegvcMAtEPTVsvc-211" value="" style="whiteSpace=wrap;html=1;aspect=fixed;fontSize=16;" parent="1" vertex="1">
          <mxGeometry x="-580" y="670" width="80" height="80" as="geometry" />
        </mxCell>
        <mxCell id="SdGfZLegvcMAtEPTVsvc-212" value="" style="whiteSpace=wrap;html=1;aspect=fixed;fontSize=16;" parent="1" vertex="1">
          <mxGeometry x="-260" y="390" width="80" height="80" as="geometry" />
        </mxCell>
        <mxCell id="SdGfZLegvcMAtEPTVsvc-213" value="" style="whiteSpace=wrap;html=1;aspect=fixed;fontSize=16;" parent="1" vertex="1">
          <mxGeometry x="-20" y="390" width="80" height="80" as="geometry" />
        </mxCell>
        <mxCell id="SdGfZLegvcMAtEPTVsvc-214" value="" style="whiteSpace=wrap;html=1;aspect=fixed;fontSize=16;" parent="1" vertex="1">
          <mxGeometry x="-100" y="390" width="80" height="80" as="geometry" />
        </mxCell>
        <mxCell id="SdGfZLegvcMAtEPTVsvc-215" value="" style="whiteSpace=wrap;html=1;aspect=fixed;fontSize=16;" parent="1" vertex="1">
          <mxGeometry x="-180" y="390" width="80" height="80" as="geometry" />
        </mxCell>
        <mxCell id="SdGfZLegvcMAtEPTVsvc-216" value="" style="whiteSpace=wrap;html=1;aspect=fixed;fontSize=16;" parent="1" vertex="1">
          <mxGeometry x="-260" y="470" width="80" height="80" as="geometry" />
        </mxCell>
        <mxCell id="SdGfZLegvcMAtEPTVsvc-217" value="" style="whiteSpace=wrap;html=1;aspect=fixed;fontSize=16;" parent="1" vertex="1">
          <mxGeometry x="60" y="470" width="80" height="80" as="geometry" />
        </mxCell>
        <mxCell id="SdGfZLegvcMAtEPTVsvc-218" value="" style="whiteSpace=wrap;html=1;aspect=fixed;fontSize=16;" parent="1" vertex="1">
          <mxGeometry x="-20" y="470" width="80" height="80" as="geometry" />
        </mxCell>
        <mxCell id="SdGfZLegvcMAtEPTVsvc-219" value="" style="whiteSpace=wrap;html=1;aspect=fixed;fontSize=16;" parent="1" vertex="1">
          <mxGeometry x="-100" y="470" width="80" height="80" as="geometry" />
        </mxCell>
        <mxCell id="SdGfZLegvcMAtEPTVsvc-220" value="" style="whiteSpace=wrap;html=1;aspect=fixed;fontSize=16;" parent="1" vertex="1">
          <mxGeometry x="-180" y="470" width="80" height="80" as="geometry" />
        </mxCell>
        <mxCell id="SdGfZLegvcMAtEPTVsvc-221" value="" style="whiteSpace=wrap;html=1;aspect=fixed;fontSize=16;" parent="1" vertex="1">
          <mxGeometry x="-260" y="550" width="80" height="80" as="geometry" />
        </mxCell>
        <mxCell id="SdGfZLegvcMAtEPTVsvc-222" value="" style="whiteSpace=wrap;html=1;aspect=fixed;fontSize=16;" parent="1" vertex="1">
          <mxGeometry x="60" y="550" width="80" height="80" as="geometry" />
        </mxCell>
        <mxCell id="SdGfZLegvcMAtEPTVsvc-223" value="" style="whiteSpace=wrap;html=1;aspect=fixed;fontSize=16;" parent="1" vertex="1">
          <mxGeometry x="-20" y="550" width="80" height="80" as="geometry" />
        </mxCell>
        <mxCell id="SdGfZLegvcMAtEPTVsvc-224" value="" style="whiteSpace=wrap;html=1;aspect=fixed;fontSize=16;" parent="1" vertex="1">
          <mxGeometry x="-100" y="550" width="80" height="80" as="geometry" />
        </mxCell>
        <mxCell id="SdGfZLegvcMAtEPTVsvc-225" value="" style="whiteSpace=wrap;html=1;aspect=fixed;fontSize=16;" parent="1" vertex="1">
          <mxGeometry x="-180" y="550" width="80" height="80" as="geometry" />
        </mxCell>
        <mxCell id="SdGfZLegvcMAtEPTVsvc-226" value="" style="whiteSpace=wrap;html=1;aspect=fixed;fontSize=16;" parent="1" vertex="1">
          <mxGeometry x="-100" y="670" width="80" height="80" as="geometry" />
        </mxCell>
        <mxCell id="SdGfZLegvcMAtEPTVsvc-227" value="" style="whiteSpace=wrap;html=1;aspect=fixed;fontSize=16;" parent="1" vertex="1">
          <mxGeometry x="-180" y="670" width="80" height="80" as="geometry" />
        </mxCell>
        <mxCell id="SdGfZLegvcMAtEPTVsvc-228" value="" style="whiteSpace=wrap;html=1;aspect=fixed;fontSize=16;" parent="1" vertex="1">
          <mxGeometry x="-260" y="670" width="80" height="80" as="geometry" />
        </mxCell>
        <mxCell id="SdGfZLegvcMAtEPTVsvc-229" value="" style="whiteSpace=wrap;html=1;aspect=fixed;fillColor=#f8cecc;strokeColor=#b85450;fontSize=16;" parent="1" vertex="1">
          <mxGeometry x="60" y="390" width="80" height="80" as="geometry" />
        </mxCell>
        <mxCell id="SdGfZLegvcMAtEPTVsvc-230" value="" style="rounded=0;whiteSpace=wrap;html=1;fillColor=#dae8fc;strokeColor=#6c8ebf;" parent="1" vertex="1">
          <mxGeometry x="-740" y="850" width="880" height="360" as="geometry" />
        </mxCell>
        <mxCell id="SdGfZLegvcMAtEPTVsvc-231" value="" style="whiteSpace=wrap;html=1;aspect=fixed;fontSize=16;" parent="1" vertex="1">
          <mxGeometry x="-740" y="850" width="80" height="80" as="geometry" />
        </mxCell>
        <mxCell id="SdGfZLegvcMAtEPTVsvc-232" value="" style="whiteSpace=wrap;html=1;aspect=fixed;fontSize=16;" parent="1" vertex="1">
          <mxGeometry x="-420" y="850" width="80" height="80" as="geometry" />
        </mxCell>
        <mxCell id="SdGfZLegvcMAtEPTVsvc-233" value="" style="whiteSpace=wrap;html=1;aspect=fixed;fontSize=16;" parent="1" vertex="1">
          <mxGeometry x="-500" y="850" width="80" height="80" as="geometry" />
        </mxCell>
        <mxCell id="SdGfZLegvcMAtEPTVsvc-234" value="" style="whiteSpace=wrap;html=1;aspect=fixed;fontSize=16;" parent="1" vertex="1">
          <mxGeometry x="-580" y="850" width="80" height="80" as="geometry" />
        </mxCell>
        <mxCell id="SdGfZLegvcMAtEPTVsvc-235" value="" style="whiteSpace=wrap;html=1;aspect=fixed;fontSize=16;" parent="1" vertex="1">
          <mxGeometry x="-660" y="850" width="80" height="80" as="geometry" />
        </mxCell>
        <mxCell id="SdGfZLegvcMAtEPTVsvc-236" value="" style="whiteSpace=wrap;html=1;aspect=fixed;fontSize=16;" parent="1" vertex="1">
          <mxGeometry x="-740" y="930" width="80" height="80" as="geometry" />
        </mxCell>
        <mxCell id="SdGfZLegvcMAtEPTVsvc-237" value="" style="whiteSpace=wrap;html=1;aspect=fixed;fontSize=16;" parent="1" vertex="1">
          <mxGeometry x="-420" y="930" width="80" height="80" as="geometry" />
        </mxCell>
        <mxCell id="SdGfZLegvcMAtEPTVsvc-238" value="" style="whiteSpace=wrap;html=1;aspect=fixed;fontSize=16;" parent="1" vertex="1">
          <mxGeometry x="-500" y="930" width="80" height="80" as="geometry" />
        </mxCell>
        <mxCell id="SdGfZLegvcMAtEPTVsvc-239" value="" style="whiteSpace=wrap;html=1;aspect=fixed;fontSize=16;" parent="1" vertex="1">
          <mxGeometry x="-580" y="930" width="80" height="80" as="geometry" />
        </mxCell>
        <mxCell id="SdGfZLegvcMAtEPTVsvc-240" value="" style="whiteSpace=wrap;html=1;aspect=fixed;fontSize=16;" parent="1" vertex="1">
          <mxGeometry x="-660" y="930" width="80" height="80" as="geometry" />
        </mxCell>
        <mxCell id="SdGfZLegvcMAtEPTVsvc-241" value="" style="whiteSpace=wrap;html=1;aspect=fixed;fontSize=16;" parent="1" vertex="1">
          <mxGeometry x="-740" y="1010" width="80" height="80" as="geometry" />
        </mxCell>
        <mxCell id="SdGfZLegvcMAtEPTVsvc-242" value="" style="whiteSpace=wrap;html=1;aspect=fixed;fontSize=16;" parent="1" vertex="1">
          <mxGeometry x="-420" y="1010" width="80" height="80" as="geometry" />
        </mxCell>
        <mxCell id="SdGfZLegvcMAtEPTVsvc-243" value="" style="whiteSpace=wrap;html=1;aspect=fixed;fontSize=16;" parent="1" vertex="1">
          <mxGeometry x="-500" y="1010" width="80" height="80" as="geometry" />
        </mxCell>
        <mxCell id="SdGfZLegvcMAtEPTVsvc-244" value="" style="whiteSpace=wrap;html=1;aspect=fixed;fontSize=16;" parent="1" vertex="1">
          <mxGeometry x="-580" y="1010" width="80" height="80" as="geometry" />
        </mxCell>
        <mxCell id="SdGfZLegvcMAtEPTVsvc-245" value="" style="whiteSpace=wrap;html=1;aspect=fixed;fontSize=16;" parent="1" vertex="1">
          <mxGeometry x="-660" y="1010" width="80" height="80" as="geometry" />
        </mxCell>
        <mxCell id="SdGfZLegvcMAtEPTVsvc-246" value="" style="whiteSpace=wrap;html=1;aspect=fixed;fontSize=16;" parent="1" vertex="1">
          <mxGeometry x="-420" y="1130" width="80" height="80" as="geometry" />
        </mxCell>
        <mxCell id="SdGfZLegvcMAtEPTVsvc-247" value="" style="whiteSpace=wrap;html=1;aspect=fixed;fontSize=16;" parent="1" vertex="1">
          <mxGeometry x="-500" y="1130" width="80" height="80" as="geometry" />
        </mxCell>
        <mxCell id="SdGfZLegvcMAtEPTVsvc-248" value="" style="whiteSpace=wrap;html=1;aspect=fixed;fontSize=16;" parent="1" vertex="1">
          <mxGeometry x="-580" y="1130" width="80" height="80" as="geometry" />
        </mxCell>
        <mxCell id="SdGfZLegvcMAtEPTVsvc-249" value="" style="whiteSpace=wrap;html=1;aspect=fixed;fontSize=16;" parent="1" vertex="1">
          <mxGeometry x="-260" y="850" width="80" height="80" as="geometry" />
        </mxCell>
        <mxCell id="SdGfZLegvcMAtEPTVsvc-250" value="" style="whiteSpace=wrap;html=1;aspect=fixed;fontSize=16;" parent="1" vertex="1">
          <mxGeometry x="-20" y="850" width="80" height="80" as="geometry" />
        </mxCell>
        <mxCell id="SdGfZLegvcMAtEPTVsvc-251" value="" style="whiteSpace=wrap;html=1;aspect=fixed;fontSize=16;" parent="1" vertex="1">
          <mxGeometry x="-100" y="850" width="80" height="80" as="geometry" />
        </mxCell>
        <mxCell id="SdGfZLegvcMAtEPTVsvc-252" value="" style="whiteSpace=wrap;html=1;aspect=fixed;fontSize=16;" parent="1" vertex="1">
          <mxGeometry x="-180" y="850" width="80" height="80" as="geometry" />
        </mxCell>
        <mxCell id="SdGfZLegvcMAtEPTVsvc-253" value="" style="whiteSpace=wrap;html=1;aspect=fixed;fontSize=16;" parent="1" vertex="1">
          <mxGeometry x="-260" y="930" width="80" height="80" as="geometry" />
        </mxCell>
        <mxCell id="SdGfZLegvcMAtEPTVsvc-254" value="" style="whiteSpace=wrap;html=1;aspect=fixed;fontSize=16;" parent="1" vertex="1">
          <mxGeometry x="60" y="930" width="80" height="80" as="geometry" />
        </mxCell>
        <mxCell id="SdGfZLegvcMAtEPTVsvc-255" value="" style="whiteSpace=wrap;html=1;aspect=fixed;fontSize=16;" parent="1" vertex="1">
          <mxGeometry x="-20" y="930" width="80" height="80" as="geometry" />
        </mxCell>
        <mxCell id="SdGfZLegvcMAtEPTVsvc-256" value="" style="whiteSpace=wrap;html=1;aspect=fixed;fontSize=16;" parent="1" vertex="1">
          <mxGeometry x="-100" y="930" width="80" height="80" as="geometry" />
        </mxCell>
        <mxCell id="SdGfZLegvcMAtEPTVsvc-257" value="" style="whiteSpace=wrap;html=1;aspect=fixed;fontSize=16;" parent="1" vertex="1">
          <mxGeometry x="-180" y="930" width="80" height="80" as="geometry" />
        </mxCell>
        <mxCell id="SdGfZLegvcMAtEPTVsvc-258" value="" style="whiteSpace=wrap;html=1;aspect=fixed;fontSize=16;" parent="1" vertex="1">
          <mxGeometry x="-260" y="1010" width="80" height="80" as="geometry" />
        </mxCell>
        <mxCell id="SdGfZLegvcMAtEPTVsvc-259" value="" style="whiteSpace=wrap;html=1;aspect=fixed;fontSize=16;" parent="1" vertex="1">
          <mxGeometry x="60" y="1010" width="80" height="80" as="geometry" />
        </mxCell>
        <mxCell id="SdGfZLegvcMAtEPTVsvc-260" value="" style="whiteSpace=wrap;html=1;aspect=fixed;fontSize=16;" parent="1" vertex="1">
          <mxGeometry x="-20" y="1010" width="80" height="80" as="geometry" />
        </mxCell>
        <mxCell id="SdGfZLegvcMAtEPTVsvc-261" value="" style="whiteSpace=wrap;html=1;aspect=fixed;fontSize=16;" parent="1" vertex="1">
          <mxGeometry x="-100" y="1010" width="80" height="80" as="geometry" />
        </mxCell>
        <mxCell id="SdGfZLegvcMAtEPTVsvc-262" value="" style="whiteSpace=wrap;html=1;aspect=fixed;fontSize=16;" parent="1" vertex="1">
          <mxGeometry x="-180" y="1010" width="80" height="80" as="geometry" />
        </mxCell>
        <mxCell id="SdGfZLegvcMAtEPTVsvc-263" value="" style="whiteSpace=wrap;html=1;aspect=fixed;fontSize=16;" parent="1" vertex="1">
          <mxGeometry x="-100" y="1130" width="80" height="80" as="geometry" />
        </mxCell>
        <mxCell id="SdGfZLegvcMAtEPTVsvc-264" value="" style="whiteSpace=wrap;html=1;aspect=fixed;fontSize=16;" parent="1" vertex="1">
          <mxGeometry x="-180" y="1130" width="80" height="80" as="geometry" />
        </mxCell>
        <mxCell id="SdGfZLegvcMAtEPTVsvc-265" value="" style="whiteSpace=wrap;html=1;aspect=fixed;fontSize=16;" parent="1" vertex="1">
          <mxGeometry x="-260" y="1130" width="80" height="80" as="geometry" />
        </mxCell>
        <mxCell id="SdGfZLegvcMAtEPTVsvc-266" value="" style="whiteSpace=wrap;html=1;aspect=fixed;fillColor=#f8cecc;strokeColor=#b85450;fontSize=16;" parent="1" vertex="1">
          <mxGeometry x="60" y="850" width="80" height="80" as="geometry" />
        </mxCell>
        <mxCell id="SdGfZLegvcMAtEPTVsvc-267" value="" style="rounded=0;whiteSpace=wrap;html=1;fillColor=#dae8fc;strokeColor=#6c8ebf;" parent="1" vertex="1">
          <mxGeometry x="-1730" y="-130" width="880" height="360" as="geometry" />
        </mxCell>
        <mxCell id="SdGfZLegvcMAtEPTVsvc-268" value="" style="whiteSpace=wrap;html=1;aspect=fixed;fontSize=16;" parent="1" vertex="1">
          <mxGeometry x="-1730" y="-130" width="80" height="80" as="geometry" />
        </mxCell>
        <mxCell id="SdGfZLegvcMAtEPTVsvc-269" value="" style="whiteSpace=wrap;html=1;aspect=fixed;fontSize=16;" parent="1" vertex="1">
          <mxGeometry x="-1410" y="-130" width="80" height="80" as="geometry" />
        </mxCell>
        <mxCell id="SdGfZLegvcMAtEPTVsvc-270" value="" style="whiteSpace=wrap;html=1;aspect=fixed;fontSize=16;" parent="1" vertex="1">
          <mxGeometry x="-1490" y="-130" width="80" height="80" as="geometry" />
        </mxCell>
        <mxCell id="SdGfZLegvcMAtEPTVsvc-271" value="" style="whiteSpace=wrap;html=1;aspect=fixed;fontSize=16;" parent="1" vertex="1">
          <mxGeometry x="-1570" y="-130" width="80" height="80" as="geometry" />
        </mxCell>
        <mxCell id="SdGfZLegvcMAtEPTVsvc-272" value="" style="whiteSpace=wrap;html=1;aspect=fixed;fontSize=16;" parent="1" vertex="1">
          <mxGeometry x="-1650" y="-130" width="80" height="80" as="geometry" />
        </mxCell>
        <mxCell id="SdGfZLegvcMAtEPTVsvc-273" value="" style="whiteSpace=wrap;html=1;aspect=fixed;fontSize=16;" parent="1" vertex="1">
          <mxGeometry x="-1730" y="-50" width="80" height="80" as="geometry" />
        </mxCell>
        <mxCell id="SdGfZLegvcMAtEPTVsvc-274" value="" style="whiteSpace=wrap;html=1;aspect=fixed;fontSize=16;" parent="1" vertex="1">
          <mxGeometry x="-1410" y="-50" width="80" height="80" as="geometry" />
        </mxCell>
        <mxCell id="SdGfZLegvcMAtEPTVsvc-275" value="" style="whiteSpace=wrap;html=1;aspect=fixed;fontSize=16;" parent="1" vertex="1">
          <mxGeometry x="-1490" y="-50" width="80" height="80" as="geometry" />
        </mxCell>
        <mxCell id="SdGfZLegvcMAtEPTVsvc-276" value="" style="whiteSpace=wrap;html=1;aspect=fixed;fontSize=16;" parent="1" vertex="1">
          <mxGeometry x="-1570" y="-50" width="80" height="80" as="geometry" />
        </mxCell>
        <mxCell id="SdGfZLegvcMAtEPTVsvc-277" value="" style="whiteSpace=wrap;html=1;aspect=fixed;fontSize=16;" parent="1" vertex="1">
          <mxGeometry x="-1650" y="-50" width="80" height="80" as="geometry" />
        </mxCell>
        <mxCell id="SdGfZLegvcMAtEPTVsvc-278" value="" style="whiteSpace=wrap;html=1;aspect=fixed;fontSize=16;" parent="1" vertex="1">
          <mxGeometry x="-1730" y="30" width="80" height="80" as="geometry" />
        </mxCell>
        <mxCell id="SdGfZLegvcMAtEPTVsvc-279" value="" style="whiteSpace=wrap;html=1;aspect=fixed;fontSize=16;" parent="1" vertex="1">
          <mxGeometry x="-1410" y="30" width="80" height="80" as="geometry" />
        </mxCell>
        <mxCell id="SdGfZLegvcMAtEPTVsvc-280" value="" style="whiteSpace=wrap;html=1;aspect=fixed;fontSize=16;" parent="1" vertex="1">
          <mxGeometry x="-1490" y="30" width="80" height="80" as="geometry" />
        </mxCell>
        <mxCell id="SdGfZLegvcMAtEPTVsvc-281" value="" style="whiteSpace=wrap;html=1;aspect=fixed;fontSize=16;" parent="1" vertex="1">
          <mxGeometry x="-1570" y="30" width="80" height="80" as="geometry" />
        </mxCell>
        <mxCell id="SdGfZLegvcMAtEPTVsvc-282" value="" style="whiteSpace=wrap;html=1;aspect=fixed;fontSize=16;" parent="1" vertex="1">
          <mxGeometry x="-1650" y="30" width="80" height="80" as="geometry" />
        </mxCell>
        <mxCell id="SdGfZLegvcMAtEPTVsvc-283" value="" style="whiteSpace=wrap;html=1;aspect=fixed;fontSize=16;" parent="1" vertex="1">
          <mxGeometry x="-1410" y="150" width="80" height="80" as="geometry" />
        </mxCell>
        <mxCell id="SdGfZLegvcMAtEPTVsvc-284" value="" style="whiteSpace=wrap;html=1;aspect=fixed;fontSize=16;" parent="1" vertex="1">
          <mxGeometry x="-1490" y="150" width="80" height="80" as="geometry" />
        </mxCell>
        <mxCell id="SdGfZLegvcMAtEPTVsvc-285" value="" style="whiteSpace=wrap;html=1;aspect=fixed;fontSize=16;" parent="1" vertex="1">
          <mxGeometry x="-1570" y="150" width="80" height="80" as="geometry" />
        </mxCell>
        <mxCell id="SdGfZLegvcMAtEPTVsvc-286" value="" style="whiteSpace=wrap;html=1;aspect=fixed;fontSize=16;" parent="1" vertex="1">
          <mxGeometry x="-1250" y="-130" width="80" height="80" as="geometry" />
        </mxCell>
        <mxCell id="SdGfZLegvcMAtEPTVsvc-287" value="" style="whiteSpace=wrap;html=1;aspect=fixed;fontSize=16;" parent="1" vertex="1">
          <mxGeometry x="-1010" y="-130" width="80" height="80" as="geometry" />
        </mxCell>
        <mxCell id="SdGfZLegvcMAtEPTVsvc-288" value="" style="whiteSpace=wrap;html=1;aspect=fixed;fontSize=16;" parent="1" vertex="1">
          <mxGeometry x="-1090" y="-130" width="80" height="80" as="geometry" />
        </mxCell>
        <mxCell id="SdGfZLegvcMAtEPTVsvc-289" value="" style="whiteSpace=wrap;html=1;aspect=fixed;fontSize=16;" parent="1" vertex="1">
          <mxGeometry x="-1170" y="-130" width="80" height="80" as="geometry" />
        </mxCell>
        <mxCell id="SdGfZLegvcMAtEPTVsvc-290" value="" style="whiteSpace=wrap;html=1;aspect=fixed;fontSize=16;" parent="1" vertex="1">
          <mxGeometry x="-1250" y="-50" width="80" height="80" as="geometry" />
        </mxCell>
        <mxCell id="SdGfZLegvcMAtEPTVsvc-291" value="" style="whiteSpace=wrap;html=1;aspect=fixed;fontSize=16;" parent="1" vertex="1">
          <mxGeometry x="-930" y="-50" width="80" height="80" as="geometry" />
        </mxCell>
        <mxCell id="SdGfZLegvcMAtEPTVsvc-292" value="" style="whiteSpace=wrap;html=1;aspect=fixed;fontSize=16;" parent="1" vertex="1">
          <mxGeometry x="-1010" y="-50" width="80" height="80" as="geometry" />
        </mxCell>
        <mxCell id="SdGfZLegvcMAtEPTVsvc-293" value="" style="whiteSpace=wrap;html=1;aspect=fixed;fontSize=16;" parent="1" vertex="1">
          <mxGeometry x="-1090" y="-50" width="80" height="80" as="geometry" />
        </mxCell>
        <mxCell id="SdGfZLegvcMAtEPTVsvc-294" value="" style="whiteSpace=wrap;html=1;aspect=fixed;fontSize=16;" parent="1" vertex="1">
          <mxGeometry x="-1170" y="-50" width="80" height="80" as="geometry" />
        </mxCell>
        <mxCell id="SdGfZLegvcMAtEPTVsvc-295" value="" style="whiteSpace=wrap;html=1;aspect=fixed;fontSize=16;" parent="1" vertex="1">
          <mxGeometry x="-1250" y="30" width="80" height="80" as="geometry" />
        </mxCell>
        <mxCell id="SdGfZLegvcMAtEPTVsvc-296" value="" style="whiteSpace=wrap;html=1;aspect=fixed;fontSize=16;" parent="1" vertex="1">
          <mxGeometry x="-930" y="30" width="80" height="80" as="geometry" />
        </mxCell>
        <mxCell id="SdGfZLegvcMAtEPTVsvc-297" value="" style="whiteSpace=wrap;html=1;aspect=fixed;fontSize=16;" parent="1" vertex="1">
          <mxGeometry x="-1010" y="30" width="80" height="80" as="geometry" />
        </mxCell>
        <mxCell id="SdGfZLegvcMAtEPTVsvc-298" value="" style="whiteSpace=wrap;html=1;aspect=fixed;fontSize=16;" parent="1" vertex="1">
          <mxGeometry x="-1090" y="30" width="80" height="80" as="geometry" />
        </mxCell>
        <mxCell id="SdGfZLegvcMAtEPTVsvc-299" value="" style="whiteSpace=wrap;html=1;aspect=fixed;fontSize=16;" parent="1" vertex="1">
          <mxGeometry x="-1170" y="30" width="80" height="80" as="geometry" />
        </mxCell>
        <mxCell id="SdGfZLegvcMAtEPTVsvc-300" value="" style="whiteSpace=wrap;html=1;aspect=fixed;fontSize=16;" parent="1" vertex="1">
          <mxGeometry x="-1090" y="150" width="80" height="80" as="geometry" />
        </mxCell>
        <mxCell id="SdGfZLegvcMAtEPTVsvc-301" value="" style="whiteSpace=wrap;html=1;aspect=fixed;fontSize=16;" parent="1" vertex="1">
          <mxGeometry x="-1170" y="150" width="80" height="80" as="geometry" />
        </mxCell>
        <mxCell id="SdGfZLegvcMAtEPTVsvc-302" value="" style="whiteSpace=wrap;html=1;aspect=fixed;fontSize=16;" parent="1" vertex="1">
          <mxGeometry x="-1250" y="150" width="80" height="80" as="geometry" />
        </mxCell>
        <mxCell id="SdGfZLegvcMAtEPTVsvc-303" value="" style="whiteSpace=wrap;html=1;aspect=fixed;fillColor=#f8cecc;strokeColor=#b85450;fontSize=16;" parent="1" vertex="1">
          <mxGeometry x="-930" y="-130" width="80" height="80" as="geometry" />
        </mxCell>
        <mxCell id="SdGfZLegvcMAtEPTVsvc-304" value="" style="rounded=0;whiteSpace=wrap;html=1;fillColor=#dae8fc;strokeColor=#6c8ebf;" parent="1" vertex="1">
          <mxGeometry x="-1730" y="390" width="880" height="360" as="geometry" />
        </mxCell>
        <mxCell id="SdGfZLegvcMAtEPTVsvc-305" value="" style="whiteSpace=wrap;html=1;aspect=fixed;fontSize=16;" parent="1" vertex="1">
          <mxGeometry x="-1730" y="390" width="80" height="80" as="geometry" />
        </mxCell>
        <mxCell id="SdGfZLegvcMAtEPTVsvc-306" value="" style="whiteSpace=wrap;html=1;aspect=fixed;fontSize=16;" parent="1" vertex="1">
          <mxGeometry x="-1410" y="390" width="80" height="80" as="geometry" />
        </mxCell>
        <mxCell id="SdGfZLegvcMAtEPTVsvc-307" value="" style="whiteSpace=wrap;html=1;aspect=fixed;fontSize=16;" parent="1" vertex="1">
          <mxGeometry x="-1490" y="390" width="80" height="80" as="geometry" />
        </mxCell>
        <mxCell id="SdGfZLegvcMAtEPTVsvc-308" value="" style="whiteSpace=wrap;html=1;aspect=fixed;fontSize=16;" parent="1" vertex="1">
          <mxGeometry x="-1570" y="390" width="80" height="80" as="geometry" />
        </mxCell>
        <mxCell id="SdGfZLegvcMAtEPTVsvc-309" value="" style="whiteSpace=wrap;html=1;aspect=fixed;fontSize=16;" parent="1" vertex="1">
          <mxGeometry x="-1650" y="390" width="80" height="80" as="geometry" />
        </mxCell>
        <mxCell id="SdGfZLegvcMAtEPTVsvc-310" value="" style="whiteSpace=wrap;html=1;aspect=fixed;fontSize=16;" parent="1" vertex="1">
          <mxGeometry x="-1730" y="470" width="80" height="80" as="geometry" />
        </mxCell>
        <mxCell id="SdGfZLegvcMAtEPTVsvc-311" value="" style="whiteSpace=wrap;html=1;aspect=fixed;fontSize=16;" parent="1" vertex="1">
          <mxGeometry x="-1410" y="470" width="80" height="80" as="geometry" />
        </mxCell>
        <mxCell id="SdGfZLegvcMAtEPTVsvc-312" value="" style="whiteSpace=wrap;html=1;aspect=fixed;fontSize=16;" parent="1" vertex="1">
          <mxGeometry x="-1490" y="470" width="80" height="80" as="geometry" />
        </mxCell>
        <mxCell id="SdGfZLegvcMAtEPTVsvc-313" value="" style="whiteSpace=wrap;html=1;aspect=fixed;fontSize=16;" parent="1" vertex="1">
          <mxGeometry x="-1570" y="470" width="80" height="80" as="geometry" />
        </mxCell>
        <mxCell id="SdGfZLegvcMAtEPTVsvc-314" value="" style="whiteSpace=wrap;html=1;aspect=fixed;fontSize=16;" parent="1" vertex="1">
          <mxGeometry x="-1650" y="470" width="80" height="80" as="geometry" />
        </mxCell>
        <mxCell id="SdGfZLegvcMAtEPTVsvc-315" value="" style="whiteSpace=wrap;html=1;aspect=fixed;fontSize=16;" parent="1" vertex="1">
          <mxGeometry x="-1730" y="550" width="80" height="80" as="geometry" />
        </mxCell>
        <mxCell id="SdGfZLegvcMAtEPTVsvc-316" value="" style="whiteSpace=wrap;html=1;aspect=fixed;fontSize=16;" parent="1" vertex="1">
          <mxGeometry x="-1410" y="550" width="80" height="80" as="geometry" />
        </mxCell>
        <mxCell id="SdGfZLegvcMAtEPTVsvc-317" value="" style="whiteSpace=wrap;html=1;aspect=fixed;fontSize=16;" parent="1" vertex="1">
          <mxGeometry x="-1490" y="550" width="80" height="80" as="geometry" />
        </mxCell>
        <mxCell id="SdGfZLegvcMAtEPTVsvc-318" value="" style="whiteSpace=wrap;html=1;aspect=fixed;fontSize=16;" parent="1" vertex="1">
          <mxGeometry x="-1570" y="550" width="80" height="80" as="geometry" />
        </mxCell>
        <mxCell id="SdGfZLegvcMAtEPTVsvc-319" value="" style="whiteSpace=wrap;html=1;aspect=fixed;fontSize=16;" parent="1" vertex="1">
          <mxGeometry x="-1650" y="550" width="80" height="80" as="geometry" />
        </mxCell>
        <mxCell id="SdGfZLegvcMAtEPTVsvc-320" value="" style="whiteSpace=wrap;html=1;aspect=fixed;fontSize=16;" parent="1" vertex="1">
          <mxGeometry x="-1410" y="670" width="80" height="80" as="geometry" />
        </mxCell>
        <mxCell id="SdGfZLegvcMAtEPTVsvc-321" value="" style="whiteSpace=wrap;html=1;aspect=fixed;fontSize=16;" parent="1" vertex="1">
          <mxGeometry x="-1490" y="670" width="80" height="80" as="geometry" />
        </mxCell>
        <mxCell id="SdGfZLegvcMAtEPTVsvc-322" value="" style="whiteSpace=wrap;html=1;aspect=fixed;fontSize=16;" parent="1" vertex="1">
          <mxGeometry x="-1570" y="670" width="80" height="80" as="geometry" />
        </mxCell>
        <mxCell id="SdGfZLegvcMAtEPTVsvc-323" value="" style="whiteSpace=wrap;html=1;aspect=fixed;fontSize=16;" parent="1" vertex="1">
          <mxGeometry x="-1250" y="390" width="80" height="80" as="geometry" />
        </mxCell>
        <mxCell id="SdGfZLegvcMAtEPTVsvc-324" value="" style="whiteSpace=wrap;html=1;aspect=fixed;fontSize=16;" parent="1" vertex="1">
          <mxGeometry x="-1010" y="390" width="80" height="80" as="geometry" />
        </mxCell>
        <mxCell id="SdGfZLegvcMAtEPTVsvc-325" value="" style="whiteSpace=wrap;html=1;aspect=fixed;fontSize=16;" parent="1" vertex="1">
          <mxGeometry x="-1090" y="390" width="80" height="80" as="geometry" />
        </mxCell>
        <mxCell id="SdGfZLegvcMAtEPTVsvc-326" value="" style="whiteSpace=wrap;html=1;aspect=fixed;fontSize=16;" parent="1" vertex="1">
          <mxGeometry x="-1170" y="390" width="80" height="80" as="geometry" />
        </mxCell>
        <mxCell id="SdGfZLegvcMAtEPTVsvc-327" value="" style="whiteSpace=wrap;html=1;aspect=fixed;fontSize=16;" parent="1" vertex="1">
          <mxGeometry x="-1250" y="470" width="80" height="80" as="geometry" />
        </mxCell>
        <mxCell id="SdGfZLegvcMAtEPTVsvc-328" value="" style="whiteSpace=wrap;html=1;aspect=fixed;fontSize=16;" parent="1" vertex="1">
          <mxGeometry x="-930" y="470" width="80" height="80" as="geometry" />
        </mxCell>
        <mxCell id="SdGfZLegvcMAtEPTVsvc-329" value="" style="whiteSpace=wrap;html=1;aspect=fixed;fontSize=16;" parent="1" vertex="1">
          <mxGeometry x="-1010" y="470" width="80" height="80" as="geometry" />
        </mxCell>
        <mxCell id="SdGfZLegvcMAtEPTVsvc-330" value="" style="whiteSpace=wrap;html=1;aspect=fixed;fontSize=16;" parent="1" vertex="1">
          <mxGeometry x="-1090" y="470" width="80" height="80" as="geometry" />
        </mxCell>
        <mxCell id="SdGfZLegvcMAtEPTVsvc-331" value="" style="whiteSpace=wrap;html=1;aspect=fixed;fontSize=16;" parent="1" vertex="1">
          <mxGeometry x="-1170" y="470" width="80" height="80" as="geometry" />
        </mxCell>
        <mxCell id="SdGfZLegvcMAtEPTVsvc-332" value="" style="whiteSpace=wrap;html=1;aspect=fixed;fontSize=16;" parent="1" vertex="1">
          <mxGeometry x="-1250" y="550" width="80" height="80" as="geometry" />
        </mxCell>
        <mxCell id="SdGfZLegvcMAtEPTVsvc-333" value="" style="whiteSpace=wrap;html=1;aspect=fixed;fontSize=16;" parent="1" vertex="1">
          <mxGeometry x="-930" y="550" width="80" height="80" as="geometry" />
        </mxCell>
        <mxCell id="SdGfZLegvcMAtEPTVsvc-334" value="" style="whiteSpace=wrap;html=1;aspect=fixed;fontSize=16;" parent="1" vertex="1">
          <mxGeometry x="-1010" y="550" width="80" height="80" as="geometry" />
        </mxCell>
        <mxCell id="SdGfZLegvcMAtEPTVsvc-335" value="" style="whiteSpace=wrap;html=1;aspect=fixed;fontSize=16;" parent="1" vertex="1">
          <mxGeometry x="-1090" y="550" width="80" height="80" as="geometry" />
        </mxCell>
        <mxCell id="SdGfZLegvcMAtEPTVsvc-336" value="" style="whiteSpace=wrap;html=1;aspect=fixed;fontSize=16;" parent="1" vertex="1">
          <mxGeometry x="-1170" y="550" width="80" height="80" as="geometry" />
        </mxCell>
        <mxCell id="SdGfZLegvcMAtEPTVsvc-337" value="" style="whiteSpace=wrap;html=1;aspect=fixed;fontSize=16;" parent="1" vertex="1">
          <mxGeometry x="-1090" y="670" width="80" height="80" as="geometry" />
        </mxCell>
        <mxCell id="SdGfZLegvcMAtEPTVsvc-338" value="" style="whiteSpace=wrap;html=1;aspect=fixed;fontSize=16;" parent="1" vertex="1">
          <mxGeometry x="-1170" y="670" width="80" height="80" as="geometry" />
        </mxCell>
        <mxCell id="SdGfZLegvcMAtEPTVsvc-339" value="" style="whiteSpace=wrap;html=1;aspect=fixed;fontSize=16;" parent="1" vertex="1">
          <mxGeometry x="-1250" y="670" width="80" height="80" as="geometry" />
        </mxCell>
        <mxCell id="SdGfZLegvcMAtEPTVsvc-340" value="" style="whiteSpace=wrap;html=1;aspect=fixed;fillColor=#f8cecc;strokeColor=#b85450;fontSize=16;" parent="1" vertex="1">
          <mxGeometry x="-930" y="390" width="80" height="80" as="geometry" />
        </mxCell>
        <mxCell id="SdGfZLegvcMAtEPTVsvc-341" value="" style="rounded=0;whiteSpace=wrap;html=1;fillColor=#dae8fc;strokeColor=#6c8ebf;" parent="1" vertex="1">
          <mxGeometry x="-1730" y="850" width="880" height="360" as="geometry" />
        </mxCell>
        <mxCell id="SdGfZLegvcMAtEPTVsvc-342" value="" style="whiteSpace=wrap;html=1;aspect=fixed;fontSize=16;" parent="1" vertex="1">
          <mxGeometry x="-1730" y="850" width="80" height="80" as="geometry" />
        </mxCell>
        <mxCell id="SdGfZLegvcMAtEPTVsvc-343" value="" style="whiteSpace=wrap;html=1;aspect=fixed;fontSize=16;" parent="1" vertex="1">
          <mxGeometry x="-1410" y="850" width="80" height="80" as="geometry" />
        </mxCell>
        <mxCell id="SdGfZLegvcMAtEPTVsvc-344" value="" style="whiteSpace=wrap;html=1;aspect=fixed;fontSize=16;" parent="1" vertex="1">
          <mxGeometry x="-1490" y="850" width="80" height="80" as="geometry" />
        </mxCell>
        <mxCell id="SdGfZLegvcMAtEPTVsvc-345" value="" style="whiteSpace=wrap;html=1;aspect=fixed;fontSize=16;" parent="1" vertex="1">
          <mxGeometry x="-1570" y="850" width="80" height="80" as="geometry" />
        </mxCell>
        <mxCell id="SdGfZLegvcMAtEPTVsvc-346" value="" style="whiteSpace=wrap;html=1;aspect=fixed;fontSize=16;" parent="1" vertex="1">
          <mxGeometry x="-1650" y="850" width="80" height="80" as="geometry" />
        </mxCell>
        <mxCell id="SdGfZLegvcMAtEPTVsvc-347" value="" style="whiteSpace=wrap;html=1;aspect=fixed;fontSize=16;" parent="1" vertex="1">
          <mxGeometry x="-1730" y="930" width="80" height="80" as="geometry" />
        </mxCell>
        <mxCell id="SdGfZLegvcMAtEPTVsvc-348" value="" style="whiteSpace=wrap;html=1;aspect=fixed;fontSize=16;" parent="1" vertex="1">
          <mxGeometry x="-1410" y="930" width="80" height="80" as="geometry" />
        </mxCell>
        <mxCell id="SdGfZLegvcMAtEPTVsvc-349" value="" style="whiteSpace=wrap;html=1;aspect=fixed;fontSize=16;" parent="1" vertex="1">
          <mxGeometry x="-1490" y="930" width="80" height="80" as="geometry" />
        </mxCell>
        <mxCell id="SdGfZLegvcMAtEPTVsvc-350" value="" style="whiteSpace=wrap;html=1;aspect=fixed;fontSize=16;" parent="1" vertex="1">
          <mxGeometry x="-1570" y="930" width="80" height="80" as="geometry" />
        </mxCell>
        <mxCell id="SdGfZLegvcMAtEPTVsvc-351" value="" style="whiteSpace=wrap;html=1;aspect=fixed;fontSize=16;" parent="1" vertex="1">
          <mxGeometry x="-1650" y="930" width="80" height="80" as="geometry" />
        </mxCell>
        <mxCell id="SdGfZLegvcMAtEPTVsvc-352" value="" style="whiteSpace=wrap;html=1;aspect=fixed;fontSize=16;" parent="1" vertex="1">
          <mxGeometry x="-1730" y="1010" width="80" height="80" as="geometry" />
        </mxCell>
        <mxCell id="SdGfZLegvcMAtEPTVsvc-353" value="" style="whiteSpace=wrap;html=1;aspect=fixed;fontSize=16;" parent="1" vertex="1">
          <mxGeometry x="-1410" y="1010" width="80" height="80" as="geometry" />
        </mxCell>
        <mxCell id="SdGfZLegvcMAtEPTVsvc-354" value="" style="whiteSpace=wrap;html=1;aspect=fixed;fontSize=16;" parent="1" vertex="1">
          <mxGeometry x="-1490" y="1010" width="80" height="80" as="geometry" />
        </mxCell>
        <mxCell id="SdGfZLegvcMAtEPTVsvc-355" value="" style="whiteSpace=wrap;html=1;aspect=fixed;fontSize=16;" parent="1" vertex="1">
          <mxGeometry x="-1570" y="1010" width="80" height="80" as="geometry" />
        </mxCell>
        <mxCell id="SdGfZLegvcMAtEPTVsvc-356" value="" style="whiteSpace=wrap;html=1;aspect=fixed;fontSize=16;" parent="1" vertex="1">
          <mxGeometry x="-1650" y="1010" width="80" height="80" as="geometry" />
        </mxCell>
        <mxCell id="SdGfZLegvcMAtEPTVsvc-357" value="" style="whiteSpace=wrap;html=1;aspect=fixed;fontSize=16;" parent="1" vertex="1">
          <mxGeometry x="-1410" y="1130" width="80" height="80" as="geometry" />
        </mxCell>
        <mxCell id="SdGfZLegvcMAtEPTVsvc-358" value="" style="whiteSpace=wrap;html=1;aspect=fixed;fontSize=16;" parent="1" vertex="1">
          <mxGeometry x="-1490" y="1130" width="80" height="80" as="geometry" />
        </mxCell>
        <mxCell id="SdGfZLegvcMAtEPTVsvc-359" value="" style="whiteSpace=wrap;html=1;aspect=fixed;fontSize=16;" parent="1" vertex="1">
          <mxGeometry x="-1570" y="1130" width="80" height="80" as="geometry" />
        </mxCell>
        <mxCell id="SdGfZLegvcMAtEPTVsvc-360" value="" style="whiteSpace=wrap;html=1;aspect=fixed;fontSize=16;" parent="1" vertex="1">
          <mxGeometry x="-1250" y="850" width="80" height="80" as="geometry" />
        </mxCell>
        <mxCell id="SdGfZLegvcMAtEPTVsvc-361" value="" style="whiteSpace=wrap;html=1;aspect=fixed;fontSize=16;" parent="1" vertex="1">
          <mxGeometry x="-1010" y="850" width="80" height="80" as="geometry" />
        </mxCell>
        <mxCell id="SdGfZLegvcMAtEPTVsvc-362" value="" style="whiteSpace=wrap;html=1;aspect=fixed;fontSize=16;" parent="1" vertex="1">
          <mxGeometry x="-1090" y="850" width="80" height="80" as="geometry" />
        </mxCell>
        <mxCell id="SdGfZLegvcMAtEPTVsvc-363" value="" style="whiteSpace=wrap;html=1;aspect=fixed;fontSize=16;" parent="1" vertex="1">
          <mxGeometry x="-1170" y="850" width="80" height="80" as="geometry" />
        </mxCell>
        <mxCell id="SdGfZLegvcMAtEPTVsvc-364" value="" style="whiteSpace=wrap;html=1;aspect=fixed;fontSize=16;" parent="1" vertex="1">
          <mxGeometry x="-1250" y="930" width="80" height="80" as="geometry" />
        </mxCell>
        <mxCell id="SdGfZLegvcMAtEPTVsvc-365" value="" style="whiteSpace=wrap;html=1;aspect=fixed;fontSize=16;" parent="1" vertex="1">
          <mxGeometry x="-930" y="930" width="80" height="80" as="geometry" />
        </mxCell>
        <mxCell id="SdGfZLegvcMAtEPTVsvc-366" value="" style="whiteSpace=wrap;html=1;aspect=fixed;fontSize=16;" parent="1" vertex="1">
          <mxGeometry x="-1010" y="930" width="80" height="80" as="geometry" />
        </mxCell>
        <mxCell id="SdGfZLegvcMAtEPTVsvc-367" value="" style="whiteSpace=wrap;html=1;aspect=fixed;fontSize=16;" parent="1" vertex="1">
          <mxGeometry x="-1090" y="930" width="80" height="80" as="geometry" />
        </mxCell>
        <mxCell id="SdGfZLegvcMAtEPTVsvc-368" value="" style="whiteSpace=wrap;html=1;aspect=fixed;fontSize=16;" parent="1" vertex="1">
          <mxGeometry x="-1170" y="930" width="80" height="80" as="geometry" />
        </mxCell>
        <mxCell id="SdGfZLegvcMAtEPTVsvc-369" value="" style="whiteSpace=wrap;html=1;aspect=fixed;fontSize=16;" parent="1" vertex="1">
          <mxGeometry x="-1250" y="1010" width="80" height="80" as="geometry" />
        </mxCell>
        <mxCell id="SdGfZLegvcMAtEPTVsvc-370" value="" style="whiteSpace=wrap;html=1;aspect=fixed;fontSize=16;" parent="1" vertex="1">
          <mxGeometry x="-930" y="1010" width="80" height="80" as="geometry" />
        </mxCell>
        <mxCell id="SdGfZLegvcMAtEPTVsvc-371" value="" style="whiteSpace=wrap;html=1;aspect=fixed;fontSize=16;" parent="1" vertex="1">
          <mxGeometry x="-1010" y="1010" width="80" height="80" as="geometry" />
        </mxCell>
        <mxCell id="SdGfZLegvcMAtEPTVsvc-372" value="" style="whiteSpace=wrap;html=1;aspect=fixed;fontSize=16;" parent="1" vertex="1">
          <mxGeometry x="-1090" y="1010" width="80" height="80" as="geometry" />
        </mxCell>
        <mxCell id="SdGfZLegvcMAtEPTVsvc-373" value="" style="whiteSpace=wrap;html=1;aspect=fixed;fontSize=16;" parent="1" vertex="1">
          <mxGeometry x="-1170" y="1010" width="80" height="80" as="geometry" />
        </mxCell>
        <mxCell id="SdGfZLegvcMAtEPTVsvc-374" value="" style="whiteSpace=wrap;html=1;aspect=fixed;fontSize=16;" parent="1" vertex="1">
          <mxGeometry x="-1090" y="1130" width="80" height="80" as="geometry" />
        </mxCell>
        <mxCell id="SdGfZLegvcMAtEPTVsvc-375" value="" style="whiteSpace=wrap;html=1;aspect=fixed;fontSize=16;" parent="1" vertex="1">
          <mxGeometry x="-1170" y="1130" width="80" height="80" as="geometry" />
        </mxCell>
        <mxCell id="SdGfZLegvcMAtEPTVsvc-376" value="" style="whiteSpace=wrap;html=1;aspect=fixed;fontSize=16;" parent="1" vertex="1">
          <mxGeometry x="-1250" y="1130" width="80" height="80" as="geometry" />
        </mxCell>
        <mxCell id="SdGfZLegvcMAtEPTVsvc-377" value="" style="whiteSpace=wrap;html=1;aspect=fixed;fillColor=#f8cecc;strokeColor=#b85450;fontSize=16;" parent="1" vertex="1">
          <mxGeometry x="-930" y="850" width="80" height="80" as="geometry" />
        </mxCell>
        <mxCell id="SdGfZLegvcMAtEPTVsvc-378" value="" style="rounded=0;whiteSpace=wrap;html=1;fillColor=#dae8fc;strokeColor=#6c8ebf;" parent="1" vertex="1">
          <mxGeometry x="-2720" y="-130" width="880" height="360" as="geometry" />
        </mxCell>
        <mxCell id="SdGfZLegvcMAtEPTVsvc-379" value="" style="whiteSpace=wrap;html=1;aspect=fixed;fontSize=16;" parent="1" vertex="1">
          <mxGeometry x="-2720" y="-130" width="80" height="80" as="geometry" />
        </mxCell>
        <mxCell id="SdGfZLegvcMAtEPTVsvc-380" value="" style="whiteSpace=wrap;html=1;aspect=fixed;fontSize=16;" parent="1" vertex="1">
          <mxGeometry x="-2400" y="-130" width="80" height="80" as="geometry" />
        </mxCell>
        <mxCell id="SdGfZLegvcMAtEPTVsvc-381" value="" style="whiteSpace=wrap;html=1;aspect=fixed;fontSize=16;" parent="1" vertex="1">
          <mxGeometry x="-2480" y="-130" width="80" height="80" as="geometry" />
        </mxCell>
        <mxCell id="SdGfZLegvcMAtEPTVsvc-382" value="" style="whiteSpace=wrap;html=1;aspect=fixed;fontSize=16;" parent="1" vertex="1">
          <mxGeometry x="-2560" y="-130" width="80" height="80" as="geometry" />
        </mxCell>
        <mxCell id="SdGfZLegvcMAtEPTVsvc-383" value="" style="whiteSpace=wrap;html=1;aspect=fixed;fontSize=16;" parent="1" vertex="1">
          <mxGeometry x="-2640" y="-130" width="80" height="80" as="geometry" />
        </mxCell>
        <mxCell id="SdGfZLegvcMAtEPTVsvc-384" value="" style="whiteSpace=wrap;html=1;aspect=fixed;fontSize=16;" parent="1" vertex="1">
          <mxGeometry x="-2720" y="-50" width="80" height="80" as="geometry" />
        </mxCell>
        <mxCell id="SdGfZLegvcMAtEPTVsvc-385" value="" style="whiteSpace=wrap;html=1;aspect=fixed;fontSize=16;" parent="1" vertex="1">
          <mxGeometry x="-2400" y="-50" width="80" height="80" as="geometry" />
        </mxCell>
        <mxCell id="SdGfZLegvcMAtEPTVsvc-386" value="" style="whiteSpace=wrap;html=1;aspect=fixed;fontSize=16;" parent="1" vertex="1">
          <mxGeometry x="-2480" y="-50" width="80" height="80" as="geometry" />
        </mxCell>
        <mxCell id="SdGfZLegvcMAtEPTVsvc-387" value="" style="whiteSpace=wrap;html=1;aspect=fixed;fontSize=16;" parent="1" vertex="1">
          <mxGeometry x="-2560" y="-50" width="80" height="80" as="geometry" />
        </mxCell>
        <mxCell id="SdGfZLegvcMAtEPTVsvc-388" value="" style="whiteSpace=wrap;html=1;aspect=fixed;fontSize=16;" parent="1" vertex="1">
          <mxGeometry x="-2640" y="-50" width="80" height="80" as="geometry" />
        </mxCell>
        <mxCell id="SdGfZLegvcMAtEPTVsvc-389" value="" style="whiteSpace=wrap;html=1;aspect=fixed;fontSize=16;" parent="1" vertex="1">
          <mxGeometry x="-2720" y="30" width="80" height="80" as="geometry" />
        </mxCell>
        <mxCell id="SdGfZLegvcMAtEPTVsvc-390" value="" style="whiteSpace=wrap;html=1;aspect=fixed;fontSize=16;" parent="1" vertex="1">
          <mxGeometry x="-2400" y="30" width="80" height="80" as="geometry" />
        </mxCell>
        <mxCell id="SdGfZLegvcMAtEPTVsvc-391" value="" style="whiteSpace=wrap;html=1;aspect=fixed;fontSize=16;" parent="1" vertex="1">
          <mxGeometry x="-2480" y="30" width="80" height="80" as="geometry" />
        </mxCell>
        <mxCell id="SdGfZLegvcMAtEPTVsvc-392" value="" style="whiteSpace=wrap;html=1;aspect=fixed;fontSize=16;" parent="1" vertex="1">
          <mxGeometry x="-2560" y="30" width="80" height="80" as="geometry" />
        </mxCell>
        <mxCell id="SdGfZLegvcMAtEPTVsvc-393" value="" style="whiteSpace=wrap;html=1;aspect=fixed;fontSize=16;" parent="1" vertex="1">
          <mxGeometry x="-2640" y="30" width="80" height="80" as="geometry" />
        </mxCell>
        <mxCell id="SdGfZLegvcMAtEPTVsvc-394" value="" style="whiteSpace=wrap;html=1;aspect=fixed;fontSize=16;" parent="1" vertex="1">
          <mxGeometry x="-2400" y="150" width="80" height="80" as="geometry" />
        </mxCell>
        <mxCell id="SdGfZLegvcMAtEPTVsvc-395" value="" style="whiteSpace=wrap;html=1;aspect=fixed;fontSize=16;" parent="1" vertex="1">
          <mxGeometry x="-2480" y="150" width="80" height="80" as="geometry" />
        </mxCell>
        <mxCell id="SdGfZLegvcMAtEPTVsvc-396" value="" style="whiteSpace=wrap;html=1;aspect=fixed;fontSize=16;" parent="1" vertex="1">
          <mxGeometry x="-2560" y="150" width="80" height="80" as="geometry" />
        </mxCell>
        <mxCell id="SdGfZLegvcMAtEPTVsvc-397" value="" style="whiteSpace=wrap;html=1;aspect=fixed;fontSize=16;" parent="1" vertex="1">
          <mxGeometry x="-2240" y="-130" width="80" height="80" as="geometry" />
        </mxCell>
        <mxCell id="SdGfZLegvcMAtEPTVsvc-398" value="" style="whiteSpace=wrap;html=1;aspect=fixed;fontSize=16;" parent="1" vertex="1">
          <mxGeometry x="-2000" y="-130" width="80" height="80" as="geometry" />
        </mxCell>
        <mxCell id="SdGfZLegvcMAtEPTVsvc-399" value="" style="whiteSpace=wrap;html=1;aspect=fixed;fontSize=16;" parent="1" vertex="1">
          <mxGeometry x="-2080" y="-130" width="80" height="80" as="geometry" />
        </mxCell>
        <mxCell id="SdGfZLegvcMAtEPTVsvc-400" value="" style="whiteSpace=wrap;html=1;aspect=fixed;fontSize=16;" parent="1" vertex="1">
          <mxGeometry x="-2160" y="-130" width="80" height="80" as="geometry" />
        </mxCell>
        <mxCell id="SdGfZLegvcMAtEPTVsvc-401" value="" style="whiteSpace=wrap;html=1;aspect=fixed;fontSize=16;" parent="1" vertex="1">
          <mxGeometry x="-2240" y="-50" width="80" height="80" as="geometry" />
        </mxCell>
        <mxCell id="SdGfZLegvcMAtEPTVsvc-402" value="" style="whiteSpace=wrap;html=1;aspect=fixed;fontSize=16;" parent="1" vertex="1">
          <mxGeometry x="-1920" y="-50" width="80" height="80" as="geometry" />
        </mxCell>
        <mxCell id="SdGfZLegvcMAtEPTVsvc-403" value="" style="whiteSpace=wrap;html=1;aspect=fixed;fontSize=16;" parent="1" vertex="1">
          <mxGeometry x="-2000" y="-50" width="80" height="80" as="geometry" />
        </mxCell>
        <mxCell id="SdGfZLegvcMAtEPTVsvc-404" value="" style="whiteSpace=wrap;html=1;aspect=fixed;fontSize=16;" parent="1" vertex="1">
          <mxGeometry x="-2080" y="-50" width="80" height="80" as="geometry" />
        </mxCell>
        <mxCell id="SdGfZLegvcMAtEPTVsvc-405" value="" style="whiteSpace=wrap;html=1;aspect=fixed;fontSize=16;" parent="1" vertex="1">
          <mxGeometry x="-2160" y="-50" width="80" height="80" as="geometry" />
        </mxCell>
        <mxCell id="SdGfZLegvcMAtEPTVsvc-406" value="" style="whiteSpace=wrap;html=1;aspect=fixed;fontSize=16;" parent="1" vertex="1">
          <mxGeometry x="-2240" y="30" width="80" height="80" as="geometry" />
        </mxCell>
        <mxCell id="SdGfZLegvcMAtEPTVsvc-407" value="" style="whiteSpace=wrap;html=1;aspect=fixed;fontSize=16;" parent="1" vertex="1">
          <mxGeometry x="-1920" y="30" width="80" height="80" as="geometry" />
        </mxCell>
        <mxCell id="SdGfZLegvcMAtEPTVsvc-408" value="" style="whiteSpace=wrap;html=1;aspect=fixed;fontSize=16;" parent="1" vertex="1">
          <mxGeometry x="-2000" y="30" width="80" height="80" as="geometry" />
        </mxCell>
        <mxCell id="SdGfZLegvcMAtEPTVsvc-409" value="" style="whiteSpace=wrap;html=1;aspect=fixed;fontSize=16;" parent="1" vertex="1">
          <mxGeometry x="-2080" y="30" width="80" height="80" as="geometry" />
        </mxCell>
        <mxCell id="SdGfZLegvcMAtEPTVsvc-410" value="" style="whiteSpace=wrap;html=1;aspect=fixed;fontSize=16;" parent="1" vertex="1">
          <mxGeometry x="-2160" y="30" width="80" height="80" as="geometry" />
        </mxCell>
        <mxCell id="SdGfZLegvcMAtEPTVsvc-411" value="" style="whiteSpace=wrap;html=1;aspect=fixed;fontSize=16;" parent="1" vertex="1">
          <mxGeometry x="-2080" y="150" width="80" height="80" as="geometry" />
        </mxCell>
        <mxCell id="SdGfZLegvcMAtEPTVsvc-412" value="" style="whiteSpace=wrap;html=1;aspect=fixed;fontSize=16;" parent="1" vertex="1">
          <mxGeometry x="-2160" y="150" width="80" height="80" as="geometry" />
        </mxCell>
        <mxCell id="SdGfZLegvcMAtEPTVsvc-413" value="" style="whiteSpace=wrap;html=1;aspect=fixed;fontSize=16;" parent="1" vertex="1">
          <mxGeometry x="-2240" y="150" width="80" height="80" as="geometry" />
        </mxCell>
        <mxCell id="SdGfZLegvcMAtEPTVsvc-414" value="" style="whiteSpace=wrap;html=1;aspect=fixed;fillColor=#f8cecc;strokeColor=#b85450;fontSize=16;" parent="1" vertex="1">
          <mxGeometry x="-1920" y="-130" width="80" height="80" as="geometry" />
        </mxCell>
        <mxCell id="SdGfZLegvcMAtEPTVsvc-415" value="" style="rounded=0;whiteSpace=wrap;html=1;fillColor=#dae8fc;strokeColor=#6c8ebf;" parent="1" vertex="1">
          <mxGeometry x="-2720" y="390" width="880" height="360" as="geometry" />
        </mxCell>
        <mxCell id="SdGfZLegvcMAtEPTVsvc-416" value="" style="whiteSpace=wrap;html=1;aspect=fixed;fontSize=16;" parent="1" vertex="1">
          <mxGeometry x="-2720" y="390" width="80" height="80" as="geometry" />
        </mxCell>
        <mxCell id="SdGfZLegvcMAtEPTVsvc-417" value="" style="whiteSpace=wrap;html=1;aspect=fixed;fontSize=16;" parent="1" vertex="1">
          <mxGeometry x="-2400" y="390" width="80" height="80" as="geometry" />
        </mxCell>
        <mxCell id="SdGfZLegvcMAtEPTVsvc-418" value="" style="whiteSpace=wrap;html=1;aspect=fixed;fontSize=16;" parent="1" vertex="1">
          <mxGeometry x="-2480" y="390" width="80" height="80" as="geometry" />
        </mxCell>
        <mxCell id="SdGfZLegvcMAtEPTVsvc-419" value="" style="whiteSpace=wrap;html=1;aspect=fixed;fontSize=16;" parent="1" vertex="1">
          <mxGeometry x="-2560" y="390" width="80" height="80" as="geometry" />
        </mxCell>
        <mxCell id="SdGfZLegvcMAtEPTVsvc-420" value="" style="whiteSpace=wrap;html=1;aspect=fixed;fontSize=16;" parent="1" vertex="1">
          <mxGeometry x="-2640" y="390" width="80" height="80" as="geometry" />
        </mxCell>
        <mxCell id="SdGfZLegvcMAtEPTVsvc-421" value="" style="whiteSpace=wrap;html=1;aspect=fixed;fontSize=16;" parent="1" vertex="1">
          <mxGeometry x="-2720" y="470" width="80" height="80" as="geometry" />
        </mxCell>
        <mxCell id="SdGfZLegvcMAtEPTVsvc-422" value="" style="whiteSpace=wrap;html=1;aspect=fixed;fontSize=16;" parent="1" vertex="1">
          <mxGeometry x="-2400" y="470" width="80" height="80" as="geometry" />
        </mxCell>
        <mxCell id="SdGfZLegvcMAtEPTVsvc-423" value="" style="whiteSpace=wrap;html=1;aspect=fixed;fontSize=16;" parent="1" vertex="1">
          <mxGeometry x="-2480" y="470" width="80" height="80" as="geometry" />
        </mxCell>
        <mxCell id="SdGfZLegvcMAtEPTVsvc-424" value="" style="whiteSpace=wrap;html=1;aspect=fixed;fontSize=16;" parent="1" vertex="1">
          <mxGeometry x="-2560" y="470" width="80" height="80" as="geometry" />
        </mxCell>
        <mxCell id="SdGfZLegvcMAtEPTVsvc-425" value="" style="whiteSpace=wrap;html=1;aspect=fixed;fontSize=16;" parent="1" vertex="1">
          <mxGeometry x="-2640" y="470" width="80" height="80" as="geometry" />
        </mxCell>
        <mxCell id="SdGfZLegvcMAtEPTVsvc-426" value="" style="whiteSpace=wrap;html=1;aspect=fixed;fontSize=16;" parent="1" vertex="1">
          <mxGeometry x="-2720" y="550" width="80" height="80" as="geometry" />
        </mxCell>
        <mxCell id="SdGfZLegvcMAtEPTVsvc-427" value="" style="whiteSpace=wrap;html=1;aspect=fixed;fontSize=16;" parent="1" vertex="1">
          <mxGeometry x="-2400" y="550" width="80" height="80" as="geometry" />
        </mxCell>
        <mxCell id="SdGfZLegvcMAtEPTVsvc-428" value="" style="whiteSpace=wrap;html=1;aspect=fixed;fontSize=16;" parent="1" vertex="1">
          <mxGeometry x="-2480" y="550" width="80" height="80" as="geometry" />
        </mxCell>
        <mxCell id="SdGfZLegvcMAtEPTVsvc-429" value="" style="whiteSpace=wrap;html=1;aspect=fixed;fontSize=16;" parent="1" vertex="1">
          <mxGeometry x="-2560" y="550" width="80" height="80" as="geometry" />
        </mxCell>
        <mxCell id="SdGfZLegvcMAtEPTVsvc-430" value="" style="whiteSpace=wrap;html=1;aspect=fixed;fontSize=16;" parent="1" vertex="1">
          <mxGeometry x="-2640" y="550" width="80" height="80" as="geometry" />
        </mxCell>
        <mxCell id="SdGfZLegvcMAtEPTVsvc-431" value="" style="whiteSpace=wrap;html=1;aspect=fixed;fontSize=16;" parent="1" vertex="1">
          <mxGeometry x="-2400" y="670" width="80" height="80" as="geometry" />
        </mxCell>
        <mxCell id="SdGfZLegvcMAtEPTVsvc-432" value="" style="whiteSpace=wrap;html=1;aspect=fixed;fontSize=16;" parent="1" vertex="1">
          <mxGeometry x="-2480" y="670" width="80" height="80" as="geometry" />
        </mxCell>
        <mxCell id="SdGfZLegvcMAtEPTVsvc-433" value="" style="whiteSpace=wrap;html=1;aspect=fixed;fontSize=16;" parent="1" vertex="1">
          <mxGeometry x="-2560" y="670" width="80" height="80" as="geometry" />
        </mxCell>
        <mxCell id="SdGfZLegvcMAtEPTVsvc-434" value="" style="whiteSpace=wrap;html=1;aspect=fixed;fontSize=16;" parent="1" vertex="1">
          <mxGeometry x="-2240" y="390" width="80" height="80" as="geometry" />
        </mxCell>
        <mxCell id="SdGfZLegvcMAtEPTVsvc-435" value="" style="whiteSpace=wrap;html=1;aspect=fixed;fontSize=16;" parent="1" vertex="1">
          <mxGeometry x="-2000" y="390" width="80" height="80" as="geometry" />
        </mxCell>
        <mxCell id="SdGfZLegvcMAtEPTVsvc-436" value="" style="whiteSpace=wrap;html=1;aspect=fixed;fontSize=16;" parent="1" vertex="1">
          <mxGeometry x="-2080" y="390" width="80" height="80" as="geometry" />
        </mxCell>
        <mxCell id="SdGfZLegvcMAtEPTVsvc-437" value="" style="whiteSpace=wrap;html=1;aspect=fixed;fontSize=16;" parent="1" vertex="1">
          <mxGeometry x="-2160" y="390" width="80" height="80" as="geometry" />
        </mxCell>
        <mxCell id="SdGfZLegvcMAtEPTVsvc-438" value="" style="whiteSpace=wrap;html=1;aspect=fixed;fontSize=16;" parent="1" vertex="1">
          <mxGeometry x="-2240" y="470" width="80" height="80" as="geometry" />
        </mxCell>
        <mxCell id="SdGfZLegvcMAtEPTVsvc-439" value="" style="whiteSpace=wrap;html=1;aspect=fixed;fontSize=16;" parent="1" vertex="1">
          <mxGeometry x="-1920" y="470" width="80" height="80" as="geometry" />
        </mxCell>
        <mxCell id="SdGfZLegvcMAtEPTVsvc-440" value="" style="whiteSpace=wrap;html=1;aspect=fixed;fontSize=16;" parent="1" vertex="1">
          <mxGeometry x="-2000" y="470" width="80" height="80" as="geometry" />
        </mxCell>
        <mxCell id="SdGfZLegvcMAtEPTVsvc-441" value="" style="whiteSpace=wrap;html=1;aspect=fixed;fontSize=16;" parent="1" vertex="1">
          <mxGeometry x="-2080" y="470" width="80" height="80" as="geometry" />
        </mxCell>
        <mxCell id="SdGfZLegvcMAtEPTVsvc-442" value="" style="whiteSpace=wrap;html=1;aspect=fixed;fontSize=16;" parent="1" vertex="1">
          <mxGeometry x="-2160" y="470" width="80" height="80" as="geometry" />
        </mxCell>
        <mxCell id="SdGfZLegvcMAtEPTVsvc-443" value="" style="whiteSpace=wrap;html=1;aspect=fixed;fontSize=16;" parent="1" vertex="1">
          <mxGeometry x="-2240" y="550" width="80" height="80" as="geometry" />
        </mxCell>
        <mxCell id="SdGfZLegvcMAtEPTVsvc-444" value="" style="whiteSpace=wrap;html=1;aspect=fixed;fontSize=16;" parent="1" vertex="1">
          <mxGeometry x="-1920" y="550" width="80" height="80" as="geometry" />
        </mxCell>
        <mxCell id="SdGfZLegvcMAtEPTVsvc-445" value="" style="whiteSpace=wrap;html=1;aspect=fixed;fontSize=16;" parent="1" vertex="1">
          <mxGeometry x="-2000" y="550" width="80" height="80" as="geometry" />
        </mxCell>
        <mxCell id="SdGfZLegvcMAtEPTVsvc-446" value="" style="whiteSpace=wrap;html=1;aspect=fixed;fontSize=16;" parent="1" vertex="1">
          <mxGeometry x="-2080" y="550" width="80" height="80" as="geometry" />
        </mxCell>
        <mxCell id="SdGfZLegvcMAtEPTVsvc-447" value="" style="whiteSpace=wrap;html=1;aspect=fixed;fontSize=16;" parent="1" vertex="1">
          <mxGeometry x="-2160" y="550" width="80" height="80" as="geometry" />
        </mxCell>
        <mxCell id="SdGfZLegvcMAtEPTVsvc-448" value="" style="whiteSpace=wrap;html=1;aspect=fixed;fontSize=16;" parent="1" vertex="1">
          <mxGeometry x="-2080" y="670" width="80" height="80" as="geometry" />
        </mxCell>
        <mxCell id="SdGfZLegvcMAtEPTVsvc-449" value="" style="whiteSpace=wrap;html=1;aspect=fixed;fontSize=16;" parent="1" vertex="1">
          <mxGeometry x="-2160" y="670" width="80" height="80" as="geometry" />
        </mxCell>
        <mxCell id="SdGfZLegvcMAtEPTVsvc-450" value="" style="whiteSpace=wrap;html=1;aspect=fixed;fontSize=16;" parent="1" vertex="1">
          <mxGeometry x="-2240" y="670" width="80" height="80" as="geometry" />
        </mxCell>
        <mxCell id="SdGfZLegvcMAtEPTVsvc-451" value="" style="whiteSpace=wrap;html=1;aspect=fixed;fillColor=#f8cecc;strokeColor=#b85450;fontSize=16;" parent="1" vertex="1">
          <mxGeometry x="-1920" y="390" width="80" height="80" as="geometry" />
        </mxCell>
        <mxCell id="SdGfZLegvcMAtEPTVsvc-452" value="" style="rounded=0;whiteSpace=wrap;html=1;fillColor=#dae8fc;strokeColor=#6c8ebf;" parent="1" vertex="1">
          <mxGeometry x="-2720" y="850" width="880" height="360" as="geometry" />
        </mxCell>
        <mxCell id="SdGfZLegvcMAtEPTVsvc-453" value="" style="whiteSpace=wrap;html=1;aspect=fixed;fontSize=16;" parent="1" vertex="1">
          <mxGeometry x="-2720" y="850" width="80" height="80" as="geometry" />
        </mxCell>
        <mxCell id="SdGfZLegvcMAtEPTVsvc-454" value="" style="whiteSpace=wrap;html=1;aspect=fixed;fontSize=16;" parent="1" vertex="1">
          <mxGeometry x="-2400" y="850" width="80" height="80" as="geometry" />
        </mxCell>
        <mxCell id="SdGfZLegvcMAtEPTVsvc-455" value="" style="whiteSpace=wrap;html=1;aspect=fixed;fontSize=16;" parent="1" vertex="1">
          <mxGeometry x="-2480" y="850" width="80" height="80" as="geometry" />
        </mxCell>
        <mxCell id="SdGfZLegvcMAtEPTVsvc-456" value="" style="whiteSpace=wrap;html=1;aspect=fixed;fontSize=16;" parent="1" vertex="1">
          <mxGeometry x="-2560" y="850" width="80" height="80" as="geometry" />
        </mxCell>
        <mxCell id="SdGfZLegvcMAtEPTVsvc-457" value="" style="whiteSpace=wrap;html=1;aspect=fixed;fontSize=16;" parent="1" vertex="1">
          <mxGeometry x="-2640" y="850" width="80" height="80" as="geometry" />
        </mxCell>
        <mxCell id="SdGfZLegvcMAtEPTVsvc-458" value="" style="whiteSpace=wrap;html=1;aspect=fixed;fontSize=16;" parent="1" vertex="1">
          <mxGeometry x="-2720" y="930" width="80" height="80" as="geometry" />
        </mxCell>
        <mxCell id="SdGfZLegvcMAtEPTVsvc-459" value="" style="whiteSpace=wrap;html=1;aspect=fixed;fontSize=16;" parent="1" vertex="1">
          <mxGeometry x="-2400" y="930" width="80" height="80" as="geometry" />
        </mxCell>
        <mxCell id="SdGfZLegvcMAtEPTVsvc-460" value="" style="whiteSpace=wrap;html=1;aspect=fixed;fontSize=16;" parent="1" vertex="1">
          <mxGeometry x="-2480" y="930" width="80" height="80" as="geometry" />
        </mxCell>
        <mxCell id="SdGfZLegvcMAtEPTVsvc-461" value="" style="whiteSpace=wrap;html=1;aspect=fixed;fontSize=16;" parent="1" vertex="1">
          <mxGeometry x="-2560" y="930" width="80" height="80" as="geometry" />
        </mxCell>
        <mxCell id="SdGfZLegvcMAtEPTVsvc-462" value="" style="whiteSpace=wrap;html=1;aspect=fixed;fontSize=16;" parent="1" vertex="1">
          <mxGeometry x="-2640" y="930" width="80" height="80" as="geometry" />
        </mxCell>
        <mxCell id="SdGfZLegvcMAtEPTVsvc-463" value="" style="whiteSpace=wrap;html=1;aspect=fixed;fontSize=16;" parent="1" vertex="1">
          <mxGeometry x="-2720" y="1010" width="80" height="80" as="geometry" />
        </mxCell>
        <mxCell id="SdGfZLegvcMAtEPTVsvc-464" value="" style="whiteSpace=wrap;html=1;aspect=fixed;fontSize=16;" parent="1" vertex="1">
          <mxGeometry x="-2400" y="1010" width="80" height="80" as="geometry" />
        </mxCell>
        <mxCell id="SdGfZLegvcMAtEPTVsvc-465" value="" style="whiteSpace=wrap;html=1;aspect=fixed;fontSize=16;" parent="1" vertex="1">
          <mxGeometry x="-2480" y="1010" width="80" height="80" as="geometry" />
        </mxCell>
        <mxCell id="SdGfZLegvcMAtEPTVsvc-466" value="" style="whiteSpace=wrap;html=1;aspect=fixed;fontSize=16;" parent="1" vertex="1">
          <mxGeometry x="-2560" y="1010" width="80" height="80" as="geometry" />
        </mxCell>
        <mxCell id="SdGfZLegvcMAtEPTVsvc-467" value="" style="whiteSpace=wrap;html=1;aspect=fixed;fontSize=16;" parent="1" vertex="1">
          <mxGeometry x="-2640" y="1010" width="80" height="80" as="geometry" />
        </mxCell>
        <mxCell id="SdGfZLegvcMAtEPTVsvc-468" value="" style="whiteSpace=wrap;html=1;aspect=fixed;fontSize=16;" parent="1" vertex="1">
          <mxGeometry x="-2400" y="1130" width="80" height="80" as="geometry" />
        </mxCell>
        <mxCell id="SdGfZLegvcMAtEPTVsvc-469" value="" style="whiteSpace=wrap;html=1;aspect=fixed;fontSize=16;" parent="1" vertex="1">
          <mxGeometry x="-2480" y="1130" width="80" height="80" as="geometry" />
        </mxCell>
        <mxCell id="SdGfZLegvcMAtEPTVsvc-470" value="" style="whiteSpace=wrap;html=1;aspect=fixed;fontSize=16;" parent="1" vertex="1">
          <mxGeometry x="-2560" y="1130" width="80" height="80" as="geometry" />
        </mxCell>
        <mxCell id="SdGfZLegvcMAtEPTVsvc-471" value="" style="whiteSpace=wrap;html=1;aspect=fixed;fontSize=16;" parent="1" vertex="1">
          <mxGeometry x="-2240" y="850" width="80" height="80" as="geometry" />
        </mxCell>
        <mxCell id="SdGfZLegvcMAtEPTVsvc-472" value="" style="whiteSpace=wrap;html=1;aspect=fixed;fontSize=16;" parent="1" vertex="1">
          <mxGeometry x="-2000" y="850" width="80" height="80" as="geometry" />
        </mxCell>
        <mxCell id="SdGfZLegvcMAtEPTVsvc-473" value="" style="whiteSpace=wrap;html=1;aspect=fixed;fontSize=16;" parent="1" vertex="1">
          <mxGeometry x="-2080" y="850" width="80" height="80" as="geometry" />
        </mxCell>
        <mxCell id="SdGfZLegvcMAtEPTVsvc-474" value="" style="whiteSpace=wrap;html=1;aspect=fixed;fontSize=16;" parent="1" vertex="1">
          <mxGeometry x="-2160" y="850" width="80" height="80" as="geometry" />
        </mxCell>
        <mxCell id="SdGfZLegvcMAtEPTVsvc-475" value="" style="whiteSpace=wrap;html=1;aspect=fixed;fontSize=16;" parent="1" vertex="1">
          <mxGeometry x="-2240" y="930" width="80" height="80" as="geometry" />
        </mxCell>
        <mxCell id="SdGfZLegvcMAtEPTVsvc-476" value="" style="whiteSpace=wrap;html=1;aspect=fixed;fontSize=16;" parent="1" vertex="1">
          <mxGeometry x="-1920" y="930" width="80" height="80" as="geometry" />
        </mxCell>
        <mxCell id="SdGfZLegvcMAtEPTVsvc-477" value="" style="whiteSpace=wrap;html=1;aspect=fixed;fontSize=16;" parent="1" vertex="1">
          <mxGeometry x="-2000" y="930" width="80" height="80" as="geometry" />
        </mxCell>
        <mxCell id="SdGfZLegvcMAtEPTVsvc-478" value="" style="whiteSpace=wrap;html=1;aspect=fixed;fontSize=16;" parent="1" vertex="1">
          <mxGeometry x="-2080" y="930" width="80" height="80" as="geometry" />
        </mxCell>
        <mxCell id="SdGfZLegvcMAtEPTVsvc-479" value="" style="whiteSpace=wrap;html=1;aspect=fixed;fontSize=16;" parent="1" vertex="1">
          <mxGeometry x="-2160" y="930" width="80" height="80" as="geometry" />
        </mxCell>
        <mxCell id="SdGfZLegvcMAtEPTVsvc-480" value="" style="whiteSpace=wrap;html=1;aspect=fixed;fontSize=16;" parent="1" vertex="1">
          <mxGeometry x="-2240" y="1010" width="80" height="80" as="geometry" />
        </mxCell>
        <mxCell id="SdGfZLegvcMAtEPTVsvc-481" value="" style="whiteSpace=wrap;html=1;aspect=fixed;fontSize=16;" parent="1" vertex="1">
          <mxGeometry x="-1920" y="1010" width="80" height="80" as="geometry" />
        </mxCell>
        <mxCell id="SdGfZLegvcMAtEPTVsvc-482" value="" style="whiteSpace=wrap;html=1;aspect=fixed;fontSize=16;" parent="1" vertex="1">
          <mxGeometry x="-2000" y="1010" width="80" height="80" as="geometry" />
        </mxCell>
        <mxCell id="SdGfZLegvcMAtEPTVsvc-483" value="" style="whiteSpace=wrap;html=1;aspect=fixed;fontSize=16;" parent="1" vertex="1">
          <mxGeometry x="-2080" y="1010" width="80" height="80" as="geometry" />
        </mxCell>
        <mxCell id="SdGfZLegvcMAtEPTVsvc-484" value="" style="whiteSpace=wrap;html=1;aspect=fixed;fontSize=16;" parent="1" vertex="1">
          <mxGeometry x="-2160" y="1010" width="80" height="80" as="geometry" />
        </mxCell>
        <mxCell id="SdGfZLegvcMAtEPTVsvc-485" value="" style="whiteSpace=wrap;html=1;aspect=fixed;fontSize=16;" parent="1" vertex="1">
          <mxGeometry x="-2080" y="1130" width="80" height="80" as="geometry" />
        </mxCell>
        <mxCell id="SdGfZLegvcMAtEPTVsvc-486" value="" style="whiteSpace=wrap;html=1;aspect=fixed;fontSize=16;" parent="1" vertex="1">
          <mxGeometry x="-2160" y="1130" width="80" height="80" as="geometry" />
        </mxCell>
        <mxCell id="SdGfZLegvcMAtEPTVsvc-487" value="" style="whiteSpace=wrap;html=1;aspect=fixed;fontSize=16;" parent="1" vertex="1">
          <mxGeometry x="-2240" y="1130" width="80" height="80" as="geometry" />
        </mxCell>
        <mxCell id="SdGfZLegvcMAtEPTVsvc-488" value="" style="whiteSpace=wrap;html=1;aspect=fixed;fillColor=#f8cecc;strokeColor=#b85450;fontSize=16;" parent="1" vertex="1">
          <mxGeometry x="-1920" y="850" width="80" height="80" as="geometry" />
        </mxCell>
        <mxCell id="hGhjzTnvbfTXE9VeTpnB-26" value="Tap Toggle: Normal" style="whiteSpace=wrap;html=1;aspect=fixed;fontSize=15;" parent="1" vertex="1">
          <mxGeometry x="2960" y="10" width="80" height="80" as="geometry" />
        </mxCell>
        <mxCell id="zB9Hcg4-IZfHeqOssu0k-8" value="Media: Next Track" style="whiteSpace=wrap;html=1;aspect=fixed;fontSize=15;" vertex="1" parent="1">
          <mxGeometry x="2880" y="10" width="80" height="80" as="geometry" />
        </mxCell>
        <mxCell id="zB9Hcg4-IZfHeqOssu0k-9" value="Media: Play/Pause" style="whiteSpace=wrap;html=1;aspect=fixed;fontSize=15;" vertex="1" parent="1">
          <mxGeometry x="2800" y="10" width="80" height="80" as="geometry" />
        </mxCell>
        <mxCell id="zB9Hcg4-IZfHeqOssu0k-10" value="Media: Previous Track" style="whiteSpace=wrap;html=1;aspect=fixed;fontSize=15;" vertex="1" parent="1">
          <mxGeometry x="2720" y="10" width="80" height="80" as="geometry" />
        </mxCell>
        <mxCell id="zB9Hcg4-IZfHeqOssu0k-11" value="Audio: Up" style="whiteSpace=wrap;html=1;aspect=fixed;fontSize=15;" vertex="1" parent="1">
          <mxGeometry x="2880" y="-150" width="80" height="80" as="geometry" />
        </mxCell>
        <mxCell id="zB9Hcg4-IZfHeqOssu0k-12" value="Audio: Mute" style="whiteSpace=wrap;html=1;aspect=fixed;fontSize=15;" vertex="1" parent="1">
          <mxGeometry x="2800" y="-150" width="80" height="80" as="geometry" />
        </mxCell>
        <mxCell id="zB9Hcg4-IZfHeqOssu0k-13" value="Audio Down" style="whiteSpace=wrap;html=1;aspect=fixed;fontSize=15;" vertex="1" parent="1">
          <mxGeometry x="2720" y="-150" width="80" height="80" as="geometry" />
        </mxCell>
      </root>
    </mxGraphModel>
  </diagram>
</mxfile>
